<?xml version="1.0" encoding="UTF-8" standalone="no"?><!DOCTYPE svg PUBLIC "-//W3C//DTD SVG 1.1//EN" "http://www.w3.org/Graphics/SVG/1.1/DTD/svg11.dtd"><svg width="100%" height="100%" viewBox="0 0 250 156" version="1.1" xmlns="http://www.w3.org/2000/svg" xmlns:xlink="http://www.w3.org/1999/xlink" xml:space="preserve" xmlns:serif="http://www.serif.com/" style="fill-rule:evenodd;clip-rule:evenodd;stroke-linejoin:round;stroke-miterlimit:2;"><g><path d="M39.936,67.59c-0.331,0.747 -0.583,1.481 -0.755,2.202c-0.614,2.866 -0.921,5.016 -0.921,6.449c-0,5.186 2.354,10.134 7.063,14.843c4.026,4.026 9.656,6.039 16.89,6.039c4.231,0 8.291,-0.648 12.181,-1.945c10.1,-4.982 28.207,-10.026 30.8,-17.532c-2.593,-4.027 -3.89,-8.769 -3.89,-14.229c-0,-3.821 0.751,-7.199 2.252,-10.134c1.911,-1.911 3.958,-2.866 6.142,-2.866c1.91,0 3.582,0.512 5.016,1.536c0.272,0.272 0.835,0.87 1.689,1.791c0.853,0.921 1.996,2.201 3.429,3.838c0.955,-0.818 2.132,-1.996 3.531,-3.531c1.399,-1.535 3.088,-3.463 5.067,-5.784c1.774,-2.047 3.412,-3.821 4.914,-5.322c1.501,-1.502 2.9,-2.73 4.196,-3.686c2.594,-1.979 5.801,-2.968 9.623,-2.968c0.75,-0 1.467,0.034 2.149,0.102c0.683,0.069 1.502,0.444 2.457,1.126c-2.73,1.638 -5.118,4.027 -7.165,7.166c-0.683,1.092 -1.502,2.405 -2.457,3.941c-0.956,1.535 -2.082,3.327 -3.378,5.374c-0.751,1.569 -1.792,3.548 -3.122,5.937c-1.331,2.388 -2.883,5.22 -4.658,8.496l-9.008,15.969c-1.569,2.729 -2.985,5.271 -4.248,7.626c-1.262,2.354 -2.371,4.589 -3.327,6.704c-0.546,0.342 -1.194,0.512 -1.944,0.512c-0.888,-0.068 -1.502,-0.102 -1.843,-0.102l-0.102,-0c0.75,-1.365 1.706,-3.122 2.866,-5.272c1.16,-2.149 2.491,-4.657 3.992,-7.523c2.457,-4.777 3.685,-9.418 3.685,-13.922c0,-3.003 -0.682,-6.039 -2.047,-9.11c-1.16,1.365 -2.628,3.258 -4.402,5.681c-1.774,2.423 -3.856,5.374 -6.244,8.854c1.433,2.116 3.958,3.174 7.575,3.174l-0.102,2.559c-2.662,-0 -5.596,-1.297 -8.804,-3.89c-11.396,13.717 -35.201,19.375 -47.894,19.375c-3.549,-0 -6.517,-0.375 -8.906,-1.126c-3.275,-1.16 -6.346,-3.173 -9.212,-6.039c-3.208,-3.208 -5.016,-6.381 -5.425,-9.52c-0.137,-1.297 -0.256,-2.338 -0.359,-3.122c-0.102,-0.785 -0.153,-1.314 -0.153,-1.587c-0,-5.937 2.627,-11.533 7.882,-16.788c4.132,-3.804 6.106,-4.166 7.64,-5.011c1.343,-0.741 5.823,-2.132 11.588,-2.36c5.111,-0.202 9.391,1.086 12.842,3.866c1.618,1.352 3.178,3.04 4.679,5.063c1.005,2.043 1.557,4.313 1.656,6.808c0.188,4.741 -0.824,8.822 -3.034,12.242c-4.525,6.011 -9.982,9.143 -16.369,9.396c-2.201,0.087 -4.112,-0.15 -5.733,-0.71c-1.622,-0.561 -3.878,-2.059 -4.885,-3.153c-3.301,-3.589 -3.863,-9.031 -3.628,-10.991c0.288,-2.402 1.937,-6.401 2.976,-7.636c0.439,-0.497 0.788,-0.9 1.048,-1.208c0.26,-0.309 0.44,-0.51 0.54,-0.603c2.181,-2.019 4.966,-2.849 8.355,-2.487c4.472,1.175 7.656,3.158 9.55,5.949c1.364,2.009 2.052,4.076 2.065,6.2c-0.01,1.008 -0.138,2.082 -0.386,3.22c-0.381,0.943 -0.947,1.763 -1.699,2.459c-1.429,1.323 -2.958,1.989 -4.586,1.997c-3.024,-0.245 -5.388,-1.623 -7.093,-4.135c-0.587,-0.865 -1,-1.698 -1.238,-2.5c-0.238,-0.802 -0.349,-1.552 -0.332,-2.249c0.017,-0.697 0.134,-1.306 0.353,-1.826c0.218,-0.52 0.503,-0.943 0.854,-1.268c0.927,-0.859 1.839,-0.93 2.733,-0.213c0.435,0.46 0.576,1.058 0.421,1.792c-0.341,-0.321 -0.762,-0.476 -1.265,-0.465c-0.503,0.011 -0.93,0.179 -1.281,0.504c-0.827,0.766 -1.018,2.079 -0.572,3.938c0.235,1.009 0.609,1.89 1.12,2.644c1.156,1.702 2.673,2.614 4.553,2.737c1.861,0.095 3.268,-0.299 4.22,-1.181l0.414,-0.383c1.178,-1.091 1.96,-2.496 2.344,-4.215c0.52,-2.482 -0.138,-5.076 -1.975,-7.782c-0.72,-1.061 -1.575,-2.019 -2.564,-2.875c-1.191,-0.852 -2.842,-1.39 -4.955,-1.616c-2.094,-0.197 -3.762,0.052 -5.004,0.748c-1.223,0.724 -2.098,1.33 -2.625,1.817c-1.905,1.764 -3.069,4.41 -3.492,7.937c-0.054,0.447 -0.081,0.893 -0.083,1.339c-0.441,3.177 2.371,7.177 2.767,7.932c0.492,0.697 1.017,1.345 1.573,1.944c0.868,0.756 1.99,1.424 3.365,2.004c1.953,0.839 3.887,1.221 5.804,1.145c4.329,-0.172 7.877,-2.145 10.642,-5.92c2.694,-3.773 3.978,-7.239 3.853,-10.4l-0.054,-1.373c-0.155,-3.909 -1.359,-7.403 -3.614,-10.479c-3.301,-4.369 -8.393,-6.416 -15.278,-6.144c-2.697,0.107 -5.002,1.316 -7.737,2.257c-3.003,1.369 -6.54,3.432 -9.788,7.56c-0.623,0.808 -1.195,1.604 -1.718,2.389Zm108.046,-29.047c-0.615,-0.068 -1.126,-0.119 -1.536,-0.154c-0.409,-0.034 -0.751,-0.051 -1.024,-0.051c-3.685,0 -7.097,1.263 -10.236,3.788c-1.228,0.955 -2.491,2.166 -3.787,3.634c-1.297,1.467 -2.628,3.156 -3.992,5.067l-6.142,9.519c0.75,2.252 1.126,4.743 1.126,7.473c-0,1.569 -0.137,3.378 -0.41,5.425c-0.273,2.047 -0.682,4.265 -1.228,6.654c2.115,-3.617 4.197,-7.2 6.244,-10.748c2.047,-3.549 4.129,-7.098 6.244,-10.646c5.187,-8.462 10.237,-14.979 15.15,-19.552l-0.409,-0.409Zm-38.796,15.252c-0.819,0.137 -1.518,0.273 -2.099,0.41c-0.58,0.136 -1.074,0.324 -1.484,0.563c-0.409,0.238 -0.768,0.58 -1.075,1.023c-0.307,0.444 -0.665,1.007 -1.074,1.689c-0.956,1.706 -1.434,3.822 -1.434,6.347c0,4.026 1.502,8.018 4.504,11.976c5.665,-6.278 9.316,-11.43 10.953,-15.457c-2.729,-4.367 -5.493,-6.551 -8.291,-6.551Z" style="stroke:#000;stroke-width:0.96px;"/><path d="M162.824,51.441c-0.273,-0.069 -0.887,-0.103 -1.842,-0.103c-3.071,0 -6.074,1.433 -9.008,4.3c-0.546,0.477 -1.348,1.364 -2.406,2.661c-0.825,1.012 -1.848,2.293 -3.068,3.845c-0.343,0.437 -0.703,0.896 -1.078,1.376c-6.346,8.189 -13,19.551 -19.96,34.086c0.955,1.775 2.354,2.662 4.197,2.662c0.955,-0 3.548,-0.512 7.779,-1.536c2.662,-0.614 5.187,-2.047 7.575,-4.299c2.32,-2.32 3.48,-4.811 3.48,-7.472c0,-1.092 -0.238,-2.252 -0.716,-3.481c-1.024,-2.525 -3.003,-3.787 -5.937,-3.787c-0.751,-0 -1.877,0.171 -3.378,0.512l-0,-0.41l10.748,-7.575c8.189,-5.8 13.137,-12.078 14.843,-18.834l-1.229,-1.945Zm-12.079,41.047c-0.341,0.478 -0.716,0.939 -1.126,1.382c-0.409,0.444 -0.887,0.836 -1.433,1.177c-0.136,0.137 -0.46,0.376 -0.972,0.717c-0.512,0.341 -1.211,0.751 -2.099,1.228l-3.071,1.536c-1.501,0.682 -2.32,1.262 -2.456,1.74c1.16,-0.341 2.149,-0.682 2.968,-1.024c0.819,-0.341 1.502,-0.648 2.048,-0.921c2.661,-1.365 4.572,-2.9 5.732,-4.606l0.409,-1.229Zm-21.598,4.607c1.501,-3.071 2.627,-5.374 3.378,-6.91c0.75,-1.535 1.16,-2.371 1.228,-2.508c2.525,-4.299 4.845,-6.449 6.961,-6.449c1.296,0 2.405,0.632 3.327,1.894c0.921,1.263 1.381,2.576 1.381,3.941c0,1.979 -0.921,4.026 -2.763,6.142c-1.843,2.184 -3.72,3.617 -5.63,4.299c-2.798,1.024 -4.47,1.536 -5.016,1.536c-0.819,-0 -1.57,-0.308 -2.252,-0.922l-0.614,-1.023Zm28.866,-44.221c1.024,-0.205 1.843,0.205 2.457,1.228c-0.887,4.436 -3.719,9.076 -8.496,13.922c-1.911,1.91 -3.941,3.702 -6.091,5.374c-2.15,1.672 -4.487,3.258 -7.012,4.759l8.087,-13.102c3.276,-5.323 6.961,-9.383 11.055,-12.181Z" style="stroke:#000;stroke-width:0.96px;"/><path d="M163.336,71.504c-1.297,-0 -1.945,0.58 -1.945,1.74c0,0.137 0.068,0.341 0.205,0.614c0.341,0.751 0.819,1.126 1.433,1.126c0.205,0 0.512,-0.068 0.921,-0.205c0.887,-0.477 1.297,-1.091 1.229,-1.842c-0,-0.955 -0.615,-1.433 -1.843,-1.433Zm-5.323,8.701l-9.315,16.583c-0.205,0.204 -0.307,0.511 -0.307,0.921c-0,1.433 0.648,2.252 1.945,2.457c0.341,0.068 0.665,0.119 0.972,0.153c0.307,0.034 0.597,0.051 0.87,0.051c2.184,0 4.368,-0.887 6.552,-2.661c0.477,-0.478 2.115,-2.32 4.913,-5.528l-6.858,5.835c-1.638,0.751 -2.628,1.126 -2.969,1.126c-0.819,-0 -1.365,-0.41 -1.638,-1.228l8.804,-17.607l-2.969,-0.102Z" style="stroke:#000;stroke-width:0.96px;"/><path d="M179.407,78.772c-4.299,0.955 -7.984,2.559 -11.055,4.811c-3.549,2.525 -5.835,5.698 -6.859,9.52c-0.204,0.614 -0.307,1.33 -0.307,2.149c0,1.501 0.427,2.747 1.28,3.736c0.853,0.99 1.996,1.485 3.429,1.485c0.341,-0 0.768,-0.052 1.28,-0.154c0.511,-0.102 1.04,-0.239 1.586,-0.409c0.546,-0.171 1.058,-0.307 1.536,-0.41c0.477,-0.102 0.853,-0.153 1.126,-0.153c-0,0.409 -0.649,1.228 -1.945,2.456c-3.685,1.365 -6.5,2.423 -8.445,3.174c-1.945,0.75 -2.986,1.16 -3.122,1.228c-4.504,2.184 -7.677,4.64 -9.52,7.37c-0.546,0.546 -0.819,1.16 -0.819,1.843c0,2.798 1.228,4.197 3.685,4.197c0.546,-0 1.314,-0.12 2.303,-0.359c0.99,-0.239 1.758,-0.358 2.303,-0.358c3.959,-1.16 7.405,-3.31 10.339,-6.449c2.116,-2.115 4.47,-5.493 7.063,-10.134c4.299,-1.569 7.609,-3.31 9.929,-5.22c3.481,-2.867 5.221,-5.084 5.221,-6.654l-0.409,0c-2.594,4.163 -7.064,7.37 -13.41,9.622l5.22,-9.008c1.57,-2.729 2.918,-5.05 4.044,-6.96c1.126,-1.911 1.962,-3.447 2.508,-4.607c-0.751,0.546 -1.502,0.819 -2.252,0.819c-0.41,0 -1.16,-0.205 -2.252,-0.614c-1.433,-0.478 -2.252,-0.785 -2.457,-0.921Zm-5.732,2.456c2.456,-0.409 3.514,-0.614 3.173,-0.614c1.774,0 3.003,0.648 3.685,1.945l-4.709,8.496c-1.979,3.549 -4.401,6.006 -7.267,7.37c-2.73,0 -4.129,-0.921 -4.197,-2.763c0.546,-4.709 3.651,-9.52 9.315,-14.434Zm-22.725,31.528c1.774,-2.593 4.47,-4.572 8.087,-5.937c2.115,-0.75 3.941,-1.382 5.476,-1.894c1.536,-0.511 2.849,-0.938 3.941,-1.279c-1.296,1.979 -2.422,3.685 -3.378,5.118c-0.955,1.433 -1.774,2.627 -2.457,3.583c-2.252,3.344 -4.913,5.016 -7.984,5.016c-1.228,-0 -2.218,-0.137 -2.968,-0.41c-0.751,-0.751 -1.126,-1.604 -1.126,-2.559c-0,-0.614 0.136,-1.16 0.409,-1.638Z" style="stroke:#000;stroke-width:0.96px;"/><path d="M200.187,80.205c-3.549,1.092 -6.551,2.934 -9.008,5.527c-2.73,2.798 -4.095,5.937 -4.095,9.418c0,0.955 0.103,1.876 0.307,2.764c0.478,1.637 1.775,2.456 3.89,2.456c0.956,0 2.355,-0.307 4.197,-0.921c5.459,-2.047 8.189,-4.64 8.189,-7.78c-0.751,2.184 -1.74,3.685 -2.968,4.504c-2.798,2.048 -4.948,3.071 -6.449,3.071c-1.911,0 -3.208,-0.75 -3.89,-2.252c-0.205,-0.682 -0.307,-1.467 -0.307,-2.354c-0,-1.774 0.648,-3.105 1.945,-3.992c1.842,-0.41 3.412,-0.819 4.708,-1.229c1.297,-0.409 2.321,-0.784 3.071,-1.126c2.662,-1.501 4.129,-3.582 4.402,-6.244c0.136,-1.365 -0.683,-2.047 -2.457,-2.047c-0.136,0 -0.341,0.017 -0.614,0.051c-0.273,0.034 -0.58,0.086 -0.921,0.154Zm-0.307,1.74c0.341,-0.068 0.631,-0 0.87,0.205c0.239,0.204 0.29,0.477 0.153,0.819c0,1.569 -0.887,3.036 -2.661,4.401c-1.365,1.092 -2.969,1.843 -4.811,2.252l-0.819,-0.409c1.842,-4.3 4.265,-6.722 7.268,-7.268Zm9.622,-12.898c0.819,-0.478 1.16,-1.092 1.023,-1.842c-0.068,-0.888 -0.614,-1.229 -1.637,-1.024c-0.41,0.068 -0.785,0.273 -1.126,0.614l-7.268,7.063c-0.273,0.273 -0.341,0.444 -0.205,0.512l0,0.307l0.205,0.102c0.205,0.069 0.375,0.103 0.512,0.103l8.496,-5.835Z" style="stroke:#000;stroke-width:0.96px;"/><path d="M224.856,57.685c-0.887,1.774 -1.962,3.77 -3.224,5.988c-1.263,2.218 -2.713,4.726 -4.351,7.524c-4.504,7.438 -8.035,13.409 -10.594,17.913c-2.559,4.504 -4.214,7.609 -4.965,9.315c-0.614,1.229 0.034,1.843 1.945,1.843c1.024,-0 2.32,-0.171 3.89,-0.512c3.003,-0.955 5.152,-2.32 6.449,-4.094l2.252,-3.276c-4.504,4.299 -7.814,6.619 -9.929,6.961c-0.546,-0 -0.99,-0.205 -1.331,-0.615c-0.341,-0.409 -0.376,-0.853 -0.103,-1.33c0.683,-1.16 1.553,-2.628 2.611,-4.402c1.057,-1.774 2.303,-3.856 3.736,-6.244l6.551,-10.646c0.956,-1.638 2.065,-3.531 3.327,-5.681c1.262,-2.15 2.679,-4.589 4.248,-7.319c1.843,-2.457 2.9,-4.299 3.173,-5.528c-0.273,0 -0.614,-0.017 -1.023,-0.051c-0.41,-0.034 -0.887,-0.085 -1.433,-0.153c-0.546,-0 -0.956,0.102 -1.229,0.307Z" style="stroke:#000;stroke-width:0.96px;"/></g><path d="M34.542,102.132c-3.752,0 -7.162,-1.534 -9.631,-4.003c-2.47,-2.47 -4.004,-5.879 -4.004,-9.631l0,-30.678c0,-3.752 1.534,-7.162 4.004,-9.631c2.469,-2.47 5.879,-4.003 9.631,-4.003l5.672,-0c0.536,-1.737 1.584,-3.265 2.872,-4.5c2.19,-2.102 5.197,-3.395 7.525,-3.395l16.008,-0c2.328,-0 5.335,1.293 7.525,3.395c1.288,1.235 2.335,2.763 2.872,4.5l5.673,-0c3.752,-0 7.161,1.534 9.631,4.003c2.469,2.47 4.003,5.88 4.003,9.631l-0,30.678c-0,3.752 -1.534,7.161 -4.003,9.631c-2.469,2.469 -5.879,4.003 -9.631,4.003" style="fill:none;stroke:#000;stroke-width:3px;"/></svg>