<?xml version="1.0" encoding="UTF-8" standalone="no"?><!DOCTYPE svg PUBLIC "-//W3C//DTD SVG 1.1//EN" "http://www.w3.org/Graphics/SVG/1.1/DTD/svg11.dtd"><svg width="100%" height="100%" viewBox="0 0 1042 650" version="1.1" xmlns="http://www.w3.org/2000/svg" xmlns:xlink="http://www.w3.org/1999/xlink" xml:space="preserve" xmlns:serif="http://www.serif.com/" style="fill-rule:evenodd;clip-rule:evenodd;stroke-linejoin:round;stroke-miterlimit:2;"><rect x="-0" y="0" width="1041.67" height="650" style="fill:#fff;"/><g><path d="M166.4,281.625c-1.379,3.113 -2.429,6.171 -3.146,9.175c-2.558,11.942 -3.837,20.9 -3.837,26.871c-0,21.608 9.808,42.225 29.429,61.846c16.775,16.775 40.233,25.162 70.375,25.162c17.629,0 34.546,-2.7 50.754,-8.104c42.083,-20.758 117.529,-41.775 128.333,-73.05c-10.804,-16.779 -16.208,-36.537 -16.208,-59.287c0,-15.921 3.129,-29.996 9.383,-42.225c7.963,-7.963 16.492,-11.942 25.592,-11.942c7.958,-0 14.925,2.133 20.9,6.4c1.133,1.133 3.479,3.625 7.038,7.462c3.554,3.838 8.316,9.171 14.287,15.992c3.979,-3.408 8.883,-8.317 14.713,-14.712c5.829,-6.396 12.866,-14.43 21.112,-24.1c7.392,-8.53 14.217,-15.921 20.475,-22.175c6.254,-6.259 12.083,-11.375 17.483,-15.359c10.809,-8.246 24.171,-12.366 40.096,-12.366c3.125,-0 6.113,0.141 8.954,0.425c2.846,0.287 6.259,1.85 10.238,4.691c-11.375,6.825 -21.325,16.779 -29.854,29.859c-2.846,4.55 -6.259,10.02 -10.238,16.42c-3.983,6.396 -8.675,13.863 -14.075,22.392c-3.129,6.538 -7.466,14.783 -13.008,24.738c-5.546,9.95 -12.013,21.75 -19.408,35.4l-37.534,66.537c-6.537,11.371 -12.437,21.963 -17.7,31.775c-5.258,9.808 -9.879,19.121 -13.862,27.933c-2.275,1.425 -4.975,2.134 -8.1,2.134c-3.7,-0.284 -6.259,-0.425 -7.679,-0.425l-0.425,-0c3.125,-5.688 7.108,-13.009 11.941,-21.967c4.834,-8.954 10.379,-19.404 16.634,-31.346c10.237,-19.904 15.354,-39.241 15.354,-58.008c-0,-12.513 -2.842,-25.163 -8.529,-37.958c-4.834,5.687 -10.95,13.575 -18.342,23.67c-7.392,10.096 -16.067,22.392 -26.017,36.892c5.971,8.817 16.492,13.225 31.563,13.225l-0.425,10.663c-11.092,-0 -23.317,-5.405 -36.684,-16.209c-47.483,57.154 -146.67,80.729 -199.558,80.729c-14.787,0 -27.154,-1.562 -37.108,-4.691c-13.646,-4.834 -26.442,-13.221 -38.384,-25.163c-13.366,-13.367 -20.9,-26.587 -22.604,-39.667c-0.571,-5.404 -1.066,-9.741 -1.496,-13.008c-0.425,-3.271 -0.637,-5.475 -0.637,-6.612c-0,-24.738 10.946,-48.055 32.842,-69.95c17.216,-15.85 25.441,-17.359 31.833,-20.88c5.596,-3.087 24.262,-8.883 48.283,-9.833c21.296,-0.842 39.129,4.525 53.509,16.108c6.741,5.634 13.241,12.667 19.495,21.096c4.188,8.513 6.488,17.971 6.9,28.367c0.784,19.754 -3.433,36.758 -12.641,51.008c-18.854,25.046 -41.592,38.096 -68.204,39.15c-9.171,0.363 -17.134,-0.625 -23.888,-2.958c-6.758,-2.337 -16.158,-8.579 -20.354,-13.137c-13.754,-14.955 -16.096,-37.63 -15.117,-45.796c1.2,-10.009 8.071,-26.671 12.4,-31.817c1.829,-2.071 3.284,-3.75 4.367,-5.033c1.083,-1.288 1.833,-2.125 2.25,-2.513c9.087,-8.412 20.692,-11.871 34.812,-10.362c18.634,4.896 31.9,13.158 39.792,24.787c5.683,8.371 8.55,16.984 8.604,25.834c-0.041,4.2 -0.575,8.675 -1.608,13.416c-1.588,3.929 -3.946,7.346 -7.079,10.246c-5.954,5.513 -12.325,8.288 -19.109,8.321c-12.6,-1.021 -22.45,-6.763 -29.554,-17.229c-2.446,-3.604 -4.166,-7.075 -5.158,-10.417c-0.992,-3.342 -1.454,-6.467 -1.383,-9.371c0.07,-2.904 0.558,-5.441 1.47,-7.608c0.909,-2.167 2.096,-3.929 3.559,-5.283c3.862,-3.58 7.662,-3.875 11.387,-0.888c1.813,1.917 2.4,4.408 1.754,7.467c-1.42,-1.338 -3.175,-1.984 -5.27,-1.938c-2.096,0.046 -3.875,0.746 -5.338,2.1c-3.446,3.192 -4.242,8.663 -2.383,16.409c0.979,4.204 2.537,7.875 4.666,11.016c4.817,7.092 11.138,10.892 18.971,11.404c7.754,0.396 13.617,-1.245 17.584,-4.92l1.725,-1.596c4.908,-4.546 8.166,-10.4 9.766,-17.563c2.167,-10.341 -0.575,-21.15 -8.229,-32.425c-3,-4.421 -6.562,-8.412 -10.683,-11.979c-4.963,-3.55 -11.842,-5.792 -20.646,-6.733c-8.725,-0.821 -15.675,0.216 -20.85,3.116c-5.096,3.017 -8.742,5.542 -10.938,7.571c-7.937,7.35 -12.787,18.375 -14.55,33.071c-0.225,1.863 -0.337,3.721 -0.345,5.579c-1.838,13.238 9.879,29.904 11.529,33.05c2.05,2.904 4.237,5.604 6.554,8.1c3.617,3.15 8.292,5.934 14.021,8.35c8.137,3.496 16.196,5.088 24.183,4.771c18.038,-0.717 32.821,-8.937 44.342,-24.667c11.225,-15.72 16.575,-30.162 16.054,-43.333l-0.225,-5.721c-0.646,-16.287 -5.663,-30.846 -15.058,-43.662c-13.755,-18.205 -34.971,-26.734 -63.659,-25.6c-11.237,0.445 -20.841,5.483 -32.237,9.404c-12.513,5.704 -27.25,14.3 -40.784,31.5c-2.595,3.366 -4.979,6.683 -7.158,9.954Zm450.192,-121.029c-2.563,-0.284 -4.692,-0.496 -6.4,-0.642c-1.704,-0.142 -3.129,-0.212 -4.267,-0.212c-15.354,-0 -29.571,5.262 -42.65,15.783c-5.117,3.979 -10.379,9.025 -15.779,15.142c-5.404,6.112 -10.95,13.15 -16.633,21.112l-25.592,39.663c3.125,9.383 4.692,19.762 4.692,31.137c-0,6.538 -0.571,14.075 -1.709,22.604c-1.137,8.529 -2.841,17.771 -5.116,27.725c8.812,-15.071 17.487,-30 26.016,-44.783c8.529,-14.788 17.204,-29.575 26.017,-44.358c21.612,-35.259 42.654,-62.413 63.125,-81.467l-1.704,-1.704Zm-161.65,63.55c-3.413,0.571 -6.325,1.137 -8.746,1.708c-2.417,0.567 -4.475,1.35 -6.183,2.346c-1.705,0.992 -3.2,2.417 -4.48,4.262c-1.279,1.85 -2.77,4.196 -4.475,7.038c-3.983,7.108 -5.975,15.925 -5.975,26.446c0,16.775 6.259,33.408 18.767,49.9c23.604,-26.159 38.817,-47.625 45.638,-64.404c-11.371,-18.196 -22.888,-27.296 -34.546,-27.296Z" style="stroke:#000;stroke-width:4px;"/><path d="M678.433,214.338c-1.137,-0.288 -3.695,-0.43 -7.675,-0.43c-12.795,0 -25.308,5.971 -37.533,17.917c-2.275,1.988 -5.617,5.683 -10.025,11.088c-3.438,4.216 -7.7,9.554 -12.783,16.02c-1.43,1.821 -2.93,3.734 -4.492,5.734c-26.442,34.121 -54.167,81.462 -83.167,142.025c3.979,7.396 9.809,11.091 17.488,11.091c3.979,0 14.783,-2.133 32.412,-6.4c11.092,-2.558 21.613,-8.529 31.563,-17.912c9.666,-9.667 14.5,-20.046 14.5,-31.134c-0,-4.55 -0.992,-9.383 -2.984,-14.504c-4.266,-10.521 -12.512,-15.779 -24.737,-15.779c-3.129,0 -7.821,0.713 -14.075,2.133l-0,-1.708l44.783,-31.562c34.121,-24.167 54.738,-50.325 61.846,-78.475l-5.121,-8.104Zm-50.329,171.029c-1.421,1.991 -2.983,3.912 -4.692,5.758c-1.704,1.85 -3.695,3.483 -5.97,4.904c-0.567,0.571 -1.917,1.567 -4.05,2.988c-2.134,1.421 -5.046,3.129 -8.746,5.116l-12.796,6.4c-6.254,2.842 -9.667,5.259 -10.233,7.25c4.833,-1.42 8.954,-2.841 12.366,-4.266c3.413,-1.421 6.259,-2.7 8.534,-3.838c11.087,-5.687 19.05,-12.083 23.883,-19.191l1.704,-5.121Zm-89.992,19.196c6.255,-12.796 10.946,-22.392 14.075,-28.792c3.125,-6.396 4.834,-9.879 5.117,-10.45c10.521,-17.913 20.188,-26.871 29.004,-26.871c5.4,0 10.021,2.633 13.863,7.892c3.837,5.262 5.754,10.733 5.754,16.421c-0,8.245 -3.838,16.775 -11.513,25.591c-7.679,9.1 -15.5,15.071 -23.458,17.913c-11.658,4.266 -18.625,6.4 -20.9,6.4c-3.412,-0 -6.542,-1.284 -9.383,-3.842l-2.559,-4.262Zm120.275,-184.255c4.267,-0.854 7.68,0.855 10.238,5.117c-3.696,18.483 -15.496,37.817 -35.4,58.008c-7.963,7.959 -16.421,15.425 -25.379,22.392c-8.959,6.967 -18.696,13.575 -29.217,19.829l33.696,-54.591c13.65,-22.18 29.004,-39.096 46.062,-50.755Z" style="stroke:#000;stroke-width:4px;"/><path d="M680.567,297.933c-5.404,0 -8.104,2.417 -8.104,7.25c-0,0.571 0.283,1.421 0.854,2.559c1.421,3.129 3.412,4.691 5.971,4.691c0.854,0 2.133,-0.283 3.837,-0.854c3.696,-1.987 5.404,-4.546 5.121,-7.675c-0,-3.979 -2.563,-5.971 -7.679,-5.971Zm-22.179,36.255l-38.813,69.095c-0.854,0.85 -1.279,2.13 -1.279,3.838c-0,5.971 2.7,9.383 8.104,10.237c1.421,0.284 2.771,0.496 4.05,0.638c1.279,0.142 2.488,0.212 3.625,0.212c9.1,0 18.2,-3.695 27.3,-11.087c1.988,-1.992 8.813,-9.667 20.471,-23.033l-28.575,24.312c-6.825,3.129 -10.95,4.692 -12.371,4.692c-3.412,-0 -5.687,-1.709 -6.825,-5.117l36.683,-73.362l-12.37,-0.425Z" style="stroke:#000;stroke-width:4px;"/><path d="M747.529,328.217c-17.912,3.979 -33.266,10.662 -46.062,20.046c-14.788,10.52 -24.313,23.741 -28.579,39.666c-0.851,2.559 -1.28,5.542 -1.28,8.954c0,6.255 1.779,11.446 5.334,15.567c3.554,4.125 8.316,6.188 14.287,6.188c1.421,-0 3.2,-0.217 5.334,-0.642c2.129,-0.425 4.333,-0.996 6.608,-1.704c2.275,-0.713 4.408,-1.279 6.4,-1.709c1.987,-0.425 3.554,-0.637 4.692,-0.637c-0,1.704 -2.705,5.117 -8.105,10.233c-15.354,5.688 -27.083,10.096 -35.187,13.225c-8.104,3.125 -12.442,4.834 -13.008,5.117c-18.767,9.1 -31.988,19.333 -39.667,30.708c-2.275,2.275 -3.413,4.834 -3.413,7.679c0,11.659 5.117,17.488 15.355,17.488c2.275,-0 5.475,-0.5 9.595,-1.496c4.125,-0.996 7.325,-1.492 9.596,-1.492c16.496,-4.833 30.854,-13.791 43.079,-26.87c8.817,-8.813 18.625,-22.888 29.43,-42.225c17.912,-6.538 31.704,-13.792 41.37,-21.75c14.505,-11.946 21.755,-21.184 21.755,-27.725l-1.705,-0c-10.808,17.345 -29.433,30.708 -55.875,40.091l21.75,-37.533c6.542,-11.371 12.159,-21.042 16.85,-29c4.692,-7.963 8.175,-14.363 10.45,-19.196c-3.129,2.275 -6.258,3.413 -9.383,3.413c-1.708,-0 -4.833,-0.855 -9.383,-2.559c-5.971,-1.991 -9.384,-3.271 -10.238,-3.837Zm-23.883,10.233c10.233,-1.704 14.642,-2.558 13.221,-2.558c7.391,-0 12.512,2.7 15.354,8.104l-19.621,35.4c-8.246,14.787 -18.337,25.025 -30.279,30.708c-11.375,0 -17.204,-3.837 -17.488,-11.512c2.275,-19.621 15.213,-39.667 38.813,-60.142Zm-94.688,131.367c7.392,-10.804 18.625,-19.05 33.696,-24.738c8.813,-3.125 16.421,-5.758 22.817,-7.891c6.4,-2.13 11.871,-3.909 16.421,-5.33c-5.4,8.246 -10.092,15.355 -14.075,21.325c-3.979,5.971 -7.392,10.946 -10.238,14.93c-9.383,13.933 -20.471,20.9 -33.266,20.9c-5.117,-0 -9.242,-0.571 -12.367,-1.709c-3.129,-3.129 -4.692,-6.683 -4.692,-10.662c0,-2.559 0.567,-4.834 1.704,-6.825Z" style="stroke:#000;stroke-width:4px;"/><path d="M834.113,334.188c-14.788,4.55 -27.296,12.225 -37.534,23.029c-11.375,11.658 -17.062,24.737 -17.062,39.241c-0,3.98 0.429,7.817 1.279,11.517c1.991,6.821 7.396,10.233 16.208,10.233c3.983,0 9.813,-1.279 17.488,-3.837c22.745,-8.529 34.12,-19.333 34.12,-32.417c-3.129,9.1 -7.25,15.354 -12.366,18.767c-11.659,8.533 -20.617,12.796 -26.871,12.796c-7.963,-0 -13.367,-3.125 -16.208,-9.384c-0.855,-2.841 -1.279,-6.112 -1.279,-9.808c-0,-7.392 2.699,-12.937 8.104,-16.633c7.675,-1.709 14.216,-3.413 19.616,-5.121c5.404,-1.704 9.671,-3.267 12.796,-4.692c11.092,-6.254 17.204,-14.925 18.342,-26.016c0.566,-5.688 -2.846,-8.53 -10.238,-8.53c-0.566,0 -1.421,0.071 -2.558,0.213c-1.138,0.142 -2.417,0.358 -3.838,0.642Zm-1.279,7.25c1.421,-0.284 2.63,-0 3.625,0.854c0.996,0.85 1.209,1.987 0.638,3.412c-0,6.538 -3.696,12.65 -11.088,18.338c-5.687,4.55 -12.37,7.679 -20.046,9.383l-3.412,-1.704c7.675,-17.917 17.771,-28.008 30.283,-30.284Zm40.092,-53.741c3.413,-1.992 4.833,-4.55 4.263,-7.675c-0.284,-3.7 -2.559,-5.121 -6.821,-4.267c-1.709,0.284 -3.271,1.138 -4.692,2.559l-30.283,29.429c-1.138,1.137 -1.421,1.85 -0.855,2.133l0,1.279l0.855,0.425c0.854,0.288 1.562,0.429 2.133,0.429l35.4,-24.312Z" style="stroke:#000;stroke-width:4px;"/><path d="M936.9,240.354c-3.696,7.392 -8.175,15.709 -13.433,24.95c-5.263,9.242 -11.304,19.692 -18.129,31.35c-18.767,30.992 -33.48,55.871 -44.142,74.638c-10.663,18.766 -17.558,31.704 -20.688,38.812c-2.558,5.121 0.142,7.679 8.105,7.679c4.266,0 9.666,-0.712 16.208,-2.133c12.512,-3.979 21.466,-9.667 26.871,-17.058l9.383,-13.65c-18.767,17.912 -32.558,27.579 -41.371,29.004c-2.275,-0 -4.125,-0.854 -5.546,-2.563c-1.42,-1.704 -1.566,-3.554 -0.429,-5.541c2.846,-4.834 6.471,-10.95 10.879,-18.342c4.405,-7.392 9.596,-16.067 15.567,-26.017l27.296,-44.358c3.983,-6.825 8.604,-14.713 13.862,-23.671c5.259,-8.958 11.163,-19.121 17.7,-30.496c7.679,-10.237 12.084,-17.912 13.221,-23.033c-1.137,-0 -2.558,-0.071 -4.262,-0.213c-1.709,-0.141 -3.696,-0.354 -5.971,-0.637c-2.275,-0 -3.983,0.425 -5.121,1.279Z" style="stroke:#000;stroke-width:4px;"/></g><path d="M143.925,425.55c-15.633,0 -29.842,-6.392 -40.129,-16.679c-10.292,-10.292 -16.683,-24.496 -16.683,-40.129l-0.001,-127.825c0.001,-15.634 6.392,-29.842 16.684,-40.129c10.287,-10.292 24.496,-16.68 40.129,-16.68l23.633,0c2.234,-7.237 6.6,-13.604 11.967,-18.75c9.125,-8.758 21.654,-14.145 31.354,-14.145l66.7,-0c9.7,-0 22.229,5.387 31.354,14.145c5.367,5.146 9.73,11.513 11.967,18.75l23.638,0c15.633,0 29.837,6.392 40.129,16.68c10.287,10.291 16.679,24.5 16.679,40.129l-0,127.825c-0,15.633 -6.392,29.837 -16.679,40.129c-10.288,10.287 -24.496,16.679 -40.129,16.679" style="fill:none;stroke:#000;stroke-width:12.5px;"/></svg>