<?xml version="1.0" encoding="UTF-8" standalone="no"?><!DOCTYPE svg PUBLIC "-//W3C//DTD SVG 1.1//EN" "http://www.w3.org/Graphics/SVG/1.1/DTD/svg11.dtd"><svg width="100%" height="100%" viewBox="0 0 250 156" version="1.1" xmlns="http://www.w3.org/2000/svg" xmlns:xlink="http://www.w3.org/1999/xlink" xml:space="preserve" xmlns:serif="http://www.serif.com/" style="fill-rule:evenodd;clip-rule:evenodd;stroke-linejoin:round;stroke-miterlimit:2;"><g><path d="M27.954,72.832c-0.144,0.326 -0.254,0.646 -0.329,0.961c-0.268,1.251 -0.402,2.19 -0.402,2.815c0,2.264 1.027,4.424 3.083,6.479c1.757,1.757 4.214,2.636 7.372,2.636c1.847,0 3.619,-0.283 5.317,-0.849c4.408,-2.175 12.312,-4.376 13.444,-7.653c-1.132,-1.757 -1.698,-3.827 -1.698,-6.21c0,-1.668 0.328,-3.143 0.983,-4.424c0.834,-0.834 1.728,-1.251 2.681,-1.251c0.834,0 1.563,0.224 2.189,0.671c0.119,0.118 0.365,0.379 0.738,0.781c0.372,0.402 0.871,0.961 1.496,1.676c0.417,-0.357 0.931,-0.872 1.542,-1.542c0.61,-0.67 1.347,-1.511 2.211,-2.524c0.775,-0.894 1.49,-1.668 2.145,-2.323c0.655,-0.656 1.266,-1.192 1.832,-1.609c1.132,-0.864 2.532,-1.296 4.2,-1.296c0.327,0 0.64,0.015 0.938,0.045c0.298,0.03 0.656,0.194 1.073,0.491c-1.192,0.715 -2.234,1.758 -3.128,3.128c-0.298,0.477 -0.656,1.05 -1.072,1.72c-0.418,0.67 -0.909,1.453 -1.475,2.346c-0.328,0.685 -0.782,1.549 -1.363,2.592c-0.581,1.042 -1.258,2.278 -2.033,3.708l-3.932,6.97c-0.685,1.192 -1.303,2.301 -1.854,3.329c-0.551,1.028 -1.035,2.003 -1.452,2.926c-0.238,0.15 -0.521,0.224 -0.849,0.224c-0.387,-0.03 -0.655,-0.045 -0.804,-0.045l-0.045,0c0.328,-0.596 0.745,-1.362 1.251,-2.301c0.507,-0.938 1.088,-2.033 1.743,-3.284c1.072,-2.085 1.608,-4.111 1.608,-6.077c0,-1.31 -0.297,-2.636 -0.893,-3.976c-0.507,0.596 -1.147,1.422 -1.922,2.48c-0.774,1.057 -1.683,2.345 -2.725,3.864c0.625,0.924 1.728,1.386 3.306,1.386l-0.044,1.117c-1.162,0 -2.443,-0.566 -3.843,-1.698c-4.974,5.987 -15.365,8.457 -20.906,8.457c-1.549,0 -2.844,-0.164 -3.887,-0.492c-1.429,-0.506 -2.77,-1.385 -4.021,-2.636c-1.4,-1.4 -2.189,-2.785 -2.368,-4.155c-0.06,-0.566 -0.112,-1.02 -0.157,-1.363c-0.044,-0.342 -0.066,-0.573 -0.066,-0.692c0,-2.592 1.146,-5.034 3.44,-7.328c1.804,-1.661 2.665,-1.819 3.335,-2.188c0.586,-0.323 2.542,-0.93 5.058,-1.03c2.231,-0.088 4.099,0.474 5.605,1.688c0.707,0.59 1.388,1.327 2.043,2.21c0.438,0.892 0.679,1.882 0.723,2.971c0.082,2.07 -0.36,3.851 -1.325,5.344c-1.975,2.624 -4.357,3.991 -7.145,4.101c-0.96,0.038 -1.795,-0.065 -2.502,-0.31c-0.708,-0.244 -1.693,-0.898 -2.132,-1.376c-1.441,-1.566 -1.687,-3.942 -1.584,-4.797c0.126,-1.049 0.846,-2.794 1.299,-3.333c0.192,-0.217 0.344,-0.393 0.457,-0.528c0.114,-0.135 0.193,-0.222 0.236,-0.263c0.952,-0.881 2.168,-1.244 3.647,-1.085c1.952,0.512 3.342,1.378 4.169,2.596c0.595,0.877 0.895,1.779 0.901,2.706c-0.004,0.44 -0.06,0.909 -0.169,1.406c-0.166,0.412 -0.413,0.77 -0.741,1.073c-0.624,0.578 -1.291,0.868 -2.002,0.872c-1.32,-0.107 -2.352,-0.708 -3.096,-1.805c-0.256,-0.377 -0.436,-0.741 -0.54,-1.091c-0.104,-0.35 -0.153,-0.678 -0.145,-0.982c0.007,-0.304 0.058,-0.57 0.154,-0.797c0.095,-0.227 0.219,-0.411 0.373,-0.553c0.404,-0.375 0.802,-0.406 1.193,-0.093c0.189,0.2 0.251,0.462 0.183,0.782c-0.149,-0.14 -0.332,-0.208 -0.552,-0.203c-0.219,0.005 -0.406,0.078 -0.559,0.22c-0.361,0.334 -0.444,0.907 -0.25,1.719c0.103,0.44 0.266,0.825 0.489,1.154c0.505,0.743 1.167,1.141 1.988,1.195c0.812,0.041 1.426,-0.131 1.842,-0.516l0.18,-0.167c0.514,-0.476 0.856,-1.09 1.023,-1.84c0.227,-1.083 -0.06,-2.216 -0.862,-3.397c-0.314,-0.463 -0.687,-0.881 -1.119,-1.255c-0.52,-0.372 -1.24,-0.606 -2.163,-0.705c-0.914,-0.086 -1.642,0.023 -2.184,0.327c-0.534,0.316 -0.916,0.58 -1.146,0.793c-0.831,0.77 -1.339,1.925 -1.524,3.464c-0.023,0.195 -0.035,0.39 -0.036,0.585c-0.193,1.386 1.035,3.132 1.208,3.462c0.214,0.304 0.444,0.587 0.686,0.848c0.379,0.33 0.869,0.622 1.469,0.875c0.853,0.366 1.697,0.533 2.533,0.5c1.89,-0.075 3.439,-0.936 4.646,-2.584c1.176,-1.647 1.736,-3.16 1.681,-4.54l-0.023,-0.599c-0.068,-1.706 -0.593,-3.231 -1.578,-4.574c-1.44,-1.907 -3.663,-2.801 -6.668,-2.682c-1.178,0.047 -2.184,0.575 -3.378,0.985c-1.31,0.598 -2.854,1.498 -4.272,3.3c-0.272,0.353 -0.522,0.7 -0.75,1.043Zm47.162,-12.679c-0.269,-0.03 -0.492,-0.052 -0.671,-0.067c-0.178,-0.015 -0.328,-0.022 -0.447,-0.022c-1.608,0 -3.098,0.551 -4.468,1.653c-0.536,0.417 -1.087,0.946 -1.653,1.586c-0.566,0.641 -1.147,1.378 -1.742,2.212l-2.681,4.155c0.327,0.983 0.491,2.07 0.491,3.262c0,0.685 -0.06,1.474 -0.179,2.368c-0.119,0.893 -0.297,1.862 -0.536,2.904c0.923,-1.578 1.832,-3.142 2.726,-4.691c0.893,-1.549 1.802,-3.098 2.725,-4.647c2.264,-3.694 4.469,-6.538 6.613,-8.534l-0.178,-0.179Zm-16.935,6.658c-0.357,0.059 -0.662,0.119 -0.916,0.179c-0.253,0.059 -0.469,0.141 -0.648,0.245c-0.178,0.104 -0.335,0.253 -0.469,0.447c-0.134,0.194 -0.29,0.439 -0.469,0.737c-0.417,0.745 -0.626,1.668 -0.626,2.77c0,1.758 0.656,3.5 1.966,5.228c2.473,-2.74 4.067,-4.989 4.781,-6.747c-1.191,-1.906 -2.397,-2.859 -3.619,-2.859Z" style="stroke:#000;stroke-width:0.42px;"/><path d="M81.594,65.783c-0.119,-0.03 -0.387,-0.045 -0.804,-0.045c-1.34,0 -2.651,0.626 -3.932,1.877c-0.238,0.208 -0.588,0.595 -1.05,1.162c-0.36,0.441 -0.807,1 -1.339,1.678c-0.15,0.191 -0.307,0.391 -0.471,0.6c-2.77,3.575 -5.674,8.534 -8.712,14.879c0.417,0.775 1.027,1.162 1.832,1.162c0.417,0 1.548,-0.224 3.395,-0.671c1.162,-0.268 2.264,-0.893 3.307,-1.876c1.012,-1.013 1.519,-2.1 1.519,-3.262c0,-0.476 -0.104,-0.983 -0.313,-1.519c-0.447,-1.102 -1.311,-1.653 -2.591,-1.653c-0.328,0 -0.82,0.075 -1.475,0.223l0,-0.179l4.692,-3.306c3.574,-2.532 5.734,-5.272 6.478,-8.221l-0.536,-0.849Zm-5.272,17.917c-0.149,0.208 -0.313,0.41 -0.492,0.603c-0.178,0.194 -0.387,0.365 -0.625,0.514c-0.06,0.06 -0.201,0.164 -0.425,0.313c-0.223,0.149 -0.528,0.328 -0.916,0.536l-1.34,0.67c-0.656,0.298 -1.013,0.551 -1.072,0.76c0.506,-0.149 0.938,-0.298 1.295,-0.447c0.358,-0.149 0.656,-0.283 0.894,-0.402c1.162,-0.596 1.996,-1.266 2.502,-2.011l0.179,-0.536Zm-9.428,2.011c0.655,-1.341 1.147,-2.346 1.475,-3.016c0.327,-0.67 0.506,-1.035 0.536,-1.095c1.102,-1.877 2.115,-2.815 3.038,-2.815c0.566,0 1.05,0.276 1.452,0.827c0.402,0.551 0.603,1.124 0.603,1.72c0,0.864 -0.402,1.757 -1.206,2.681c-0.804,0.953 -1.624,1.579 -2.457,1.876c-1.222,0.447 -1.951,0.671 -2.19,0.671c-0.357,0 -0.685,-0.135 -0.983,-0.403l-0.268,-0.446Zm12.6,-19.302c0.447,-0.09 0.804,0.089 1.072,0.536c-0.387,1.936 -1.623,3.961 -3.708,6.076c-0.834,0.834 -1.72,1.616 -2.659,2.346c-0.938,0.73 -1.958,1.422 -3.06,2.077l3.53,-5.719c1.43,-2.323 3.038,-4.095 4.825,-5.316Z" style="stroke:#000;stroke-width:0.42px;"/><path d="M81.817,74.54c-0.566,0 -0.848,0.254 -0.848,0.76c0,0.06 0.029,0.149 0.089,0.268c0.149,0.328 0.357,0.491 0.625,0.491c0.09,0 0.224,-0.029 0.402,-0.089c0.388,-0.208 0.567,-0.476 0.537,-0.804c0,-0.417 -0.268,-0.626 -0.805,-0.626Zm-2.323,3.798l-4.066,7.239c-0.089,0.089 -0.134,0.223 -0.134,0.402c0,0.625 0.283,0.983 0.849,1.072c0.149,0.03 0.29,0.052 0.424,0.067c0.134,0.015 0.261,0.022 0.38,0.022c0.953,0 1.907,-0.387 2.86,-1.161c0.208,-0.209 0.923,-1.013 2.144,-2.413l-2.993,2.547c-0.715,0.328 -1.147,0.491 -1.296,0.491c-0.357,0 -0.596,-0.179 -0.715,-0.536l3.843,-7.685l-1.296,-0.045Z" style="stroke:#000;stroke-width:0.42px;"/><path d="M88.832,77.713c-1.876,0.417 -3.485,1.117 -4.825,2.1c-1.549,1.102 -2.547,2.487 -2.994,4.155c-0.089,0.268 -0.134,0.581 -0.134,0.938c0,0.655 0.186,1.199 0.559,1.631c0.372,0.432 0.871,0.648 1.496,0.648c0.149,0 0.336,-0.022 0.559,-0.067c0.223,-0.045 0.454,-0.104 0.692,-0.179c0.239,-0.074 0.462,-0.134 0.671,-0.178c0.208,-0.045 0.372,-0.067 0.491,-0.067c0,0.178 -0.283,0.536 -0.849,1.072c-1.608,0.596 -2.837,1.057 -3.686,1.385c-0.849,0.328 -1.303,0.507 -1.362,0.536c-1.966,0.953 -3.351,2.026 -4.156,3.217c-0.238,0.238 -0.357,0.506 -0.357,0.805c0,1.221 0.536,1.832 1.608,1.832c0.238,0 0.574,-0.053 1.005,-0.157c0.432,-0.104 0.768,-0.156 1.006,-0.156c1.728,-0.507 3.232,-1.445 4.512,-2.815c0.924,-0.924 1.952,-2.398 3.083,-4.424c1.877,-0.685 3.322,-1.445 4.334,-2.278c1.52,-1.252 2.279,-2.219 2.279,-2.905l-0.178,0c-1.132,1.817 -3.084,3.217 -5.854,4.2l2.279,-3.932c0.685,-1.191 1.274,-2.204 1.765,-3.038c0.492,-0.834 0.856,-1.504 1.095,-2.011c-0.328,0.239 -0.656,0.358 -0.983,0.358c-0.179,0 -0.507,-0.09 -0.983,-0.268c-0.626,-0.209 -0.983,-0.343 -1.073,-0.402Zm-2.502,1.072c1.072,-0.179 1.534,-0.268 1.385,-0.268c0.775,0 1.311,0.283 1.609,0.849l-2.056,3.708c-0.863,1.549 -1.921,2.622 -3.172,3.217c-1.191,0 -1.802,-0.402 -1.832,-1.206c0.239,-2.055 1.594,-4.155 4.066,-6.3Zm-9.919,13.762c0.774,-1.132 1.951,-1.996 3.53,-2.592c0.923,-0.327 1.72,-0.603 2.39,-0.827c0.671,-0.223 1.244,-0.409 1.72,-0.558c-0.565,0.864 -1.057,1.609 -1.474,2.234c-0.417,0.626 -0.774,1.147 -1.072,1.564c-0.983,1.46 -2.145,2.19 -3.485,2.19c-0.536,0 -0.969,-0.06 -1.296,-0.179c-0.328,-0.328 -0.491,-0.701 -0.491,-1.117c0,-0.268 0.059,-0.507 0.178,-0.715Z" style="stroke:#000;stroke-width:0.42px;"/><path d="M97.903,78.338c-1.549,0.477 -2.86,1.281 -3.932,2.413c-1.192,1.221 -1.788,2.591 -1.788,4.111c0,0.417 0.045,0.819 0.134,1.206c0.209,0.715 0.775,1.072 1.698,1.072c0.418,0 1.028,-0.134 1.832,-0.402c2.383,-0.893 3.575,-2.025 3.575,-3.396c-0.328,0.954 -0.76,1.609 -1.296,1.966c-1.221,0.894 -2.16,1.341 -2.815,1.341c-0.834,0 -1.4,-0.328 -1.698,-0.983c-0.089,-0.298 -0.134,-0.641 -0.134,-1.028c0,-0.774 0.283,-1.355 0.849,-1.742c0.804,-0.179 1.49,-0.358 2.055,-0.537c0.566,-0.178 1.013,-0.342 1.341,-0.491c1.162,-0.655 1.802,-1.564 1.921,-2.726c0.06,-0.595 -0.298,-0.893 -1.072,-0.893c-0.06,0 -0.149,0.007 -0.268,0.022c-0.119,0.015 -0.253,0.038 -0.402,0.067Zm-0.134,0.76c0.149,-0.03 0.275,0 0.379,0.089c0.105,0.089 0.127,0.209 0.067,0.358c0,0.685 -0.387,1.325 -1.161,1.921c-0.596,0.476 -1.296,0.804 -2.1,0.983l-0.358,-0.179c0.804,-1.877 1.862,-2.934 3.173,-3.172Zm4.2,-5.63c0.357,-0.209 0.506,-0.477 0.446,-0.804c-0.029,-0.388 -0.268,-0.537 -0.714,-0.447c-0.179,0.03 -0.343,0.119 -0.492,0.268l-3.172,3.083c-0.119,0.119 -0.149,0.194 -0.09,0.223l0,0.134l0.09,0.045c0.089,0.03 0.163,0.045 0.223,0.045l3.709,-2.547Z" style="stroke:#000;stroke-width:0.42px;"/><path d="M108.671,68.509c-0.388,0.774 -0.857,1.645 -1.408,2.613c-0.551,0.968 -1.184,2.063 -1.899,3.284c-1.966,3.247 -3.507,5.853 -4.624,7.819c-1.117,1.966 -1.839,3.322 -2.167,4.066c-0.268,0.537 0.015,0.805 0.849,0.805c0.447,0 1.012,-0.075 1.698,-0.224c1.31,-0.417 2.248,-1.012 2.815,-1.787l0.983,-1.43c-1.966,1.877 -3.411,2.889 -4.334,3.039c-0.239,0 -0.432,-0.09 -0.581,-0.269c-0.149,-0.178 -0.164,-0.372 -0.045,-0.58c0.298,-0.507 0.678,-1.147 1.139,-1.922c0.462,-0.774 1.006,-1.683 1.631,-2.725l2.86,-4.647c0.417,-0.715 0.901,-1.541 1.452,-2.48c0.551,-0.938 1.169,-2.003 1.854,-3.195c0.805,-1.072 1.266,-1.876 1.385,-2.412c-0.119,0 -0.268,-0.008 -0.446,-0.023c-0.179,-0.015 -0.388,-0.037 -0.626,-0.066c-0.238,0 -0.417,0.044 -0.536,0.134Z" style="stroke:#000;stroke-width:0.42px;"/></g><path d="M25.6,87.909c-1.638,0 -3.126,-0.669 -4.204,-1.747c-1.078,-1.078 -1.748,-2.566 -1.748,-4.204l0,-13.391c0,-1.637 0.67,-3.126 1.748,-4.203c1.078,-1.079 2.566,-1.748 4.204,-1.748l2.476,0c0.233,-0.758 0.691,-1.425 1.253,-1.964c0.956,-0.917 2.269,-1.482 3.285,-1.482l6.987,0c1.016,0 2.329,0.565 3.285,1.482c0.562,0.539 1.019,1.206 1.253,1.964l2.477,0c1.637,0 3.125,0.67 4.203,1.748c1.078,1.078 1.748,2.566 1.748,4.203l0,13.391c0,1.638 -0.67,3.126 -1.748,4.204c-1.077,1.078 -2.566,1.747 -4.203,1.747" style="fill:none;stroke:#000;stroke-width:1.31px;"/><g><g><path d="M116.961,78.119c-0.122,-0.214 -0.366,-0.321 -0.732,-0.321l-1.052,0l-3.935,7c-0.671,1.22 -1.288,2.356 -1.852,3.408c-0.565,1.052 -1.091,2.051 -1.579,2.997c-0.671,1.311 -1.265,2.432 -1.784,3.362c-0.518,0.93 -0.945,1.655 -1.281,2.173c-0.091,0 -0.061,0 0.092,0c0.122,0 0.366,0.016 0.732,0.046c0.366,0 0.625,-0.076 0.777,-0.229c0.946,-1.86 1.899,-3.637 2.86,-5.329c0.96,-1.693 1.959,-3.332 2.996,-4.918c0.458,0.671 1.144,1.006 2.059,1.006c0.335,0 0.64,-0.046 0.915,-0.137c1.799,-0.824 3.294,-1.906 4.483,-3.248c1.403,-1.525 2.105,-3.172 2.105,-4.941c-0.366,-0.946 -1.068,-1.418 -2.105,-1.418c-0.579,-0 -1.479,0.183 -2.699,0.549Zm6.496,4.986c-2.043,2.044 -3.705,3.264 -4.986,3.66c1.311,-0.366 2.333,-0.831 3.065,-1.395c0.732,-0.564 1.372,-1.319 1.921,-2.265Zm-10.476,2.242c0.122,-0.305 0.313,-0.785 0.572,-1.441c0.259,-0.656 0.602,-1.517 1.029,-2.585c0.915,-1.769 1.983,-2.653 3.202,-2.653c0.671,-0 1.403,0.259 2.196,0.777c0,3.02 -1.525,5.307 -4.574,6.863c-0.549,0.183 -0.976,0.274 -1.281,0.274c-0.549,0 -0.931,-0.412 -1.144,-1.235Z" style="fill-rule:nonzero;stroke:#000;stroke-width:0.5px;"/><path d="M138.005,64.989c-1.982,1.067 -3.705,2.516 -5.169,4.346c-0.702,0.854 -1.426,1.845 -2.173,2.974c-0.748,1.128 -1.548,2.424 -2.402,3.888c-1.312,2.227 -2.318,3.927 -3.02,5.101c-0.701,1.174 -1.082,1.838 -1.143,1.99c-1.373,2.257 -2.105,3.614 -2.196,4.072c0.915,-0 1.54,-0.183 1.876,-0.549c1.219,-2.44 1.951,-3.843 2.195,-4.209c0.946,-1.555 1.968,-2.73 3.066,-3.523c0.671,-0.274 1.204,-0.411 1.601,-0.411c0.549,-0 0.991,0.213 1.326,0.64c-0.243,0.885 -0.747,1.922 -1.509,3.111c-0.519,0.793 -0.93,1.441 -1.235,1.944c-0.305,0.504 -0.504,0.847 -0.595,1.03c-0.183,0.244 -0.275,0.549 -0.275,0.915c0,0.335 0.107,0.594 0.321,0.777c0.366,0.183 0.747,0.275 1.143,0.275c0.976,-0 1.983,-0.442 3.02,-1.327c0.915,-0.762 1.601,-1.662 2.058,-2.699c-1.708,2.287 -3.248,3.431 -4.62,3.431c-0.214,-0.122 -0.32,-0.32 -0.32,-0.595c-0,-0.488 0.289,-1.174 0.869,-2.058c0.274,-0.336 0.549,-0.671 0.823,-1.007c0.275,-0.335 0.534,-0.671 0.778,-1.006c0.64,-0.854 0.961,-1.617 0.961,-2.288c-0,-0.427 -0.138,-0.869 -0.412,-1.326c-0.458,-0.275 -1.007,-0.412 -1.647,-0.412c-1.067,-0 -2.12,0.29 -3.157,0.869c0.305,-0.396 0.427,-0.671 0.366,-0.823l6.542,-4.941c2.623,-1.983 4.209,-4.361 4.758,-7.137c0.092,-0.427 -0.084,-0.724 -0.526,-0.892c-0.442,-0.168 -0.877,-0.221 -1.304,-0.16Zm-2.15,1.647c0.915,-0.427 1.571,-0.641 1.967,-0.641c0.427,0 0.61,0.168 0.549,0.504c-1.037,3.629 -3.782,6.755 -8.234,9.378c1.281,-2.348 2.394,-4.285 3.339,-5.81c0.946,-1.525 1.739,-2.669 2.379,-3.431Z" style="fill-rule:nonzero;stroke:#000;stroke-width:0.5px;"/><path d="M141.162,78.347c-1.556,0.58 -2.821,1.297 -3.797,2.151c-1.617,1.433 -2.425,3.05 -2.425,4.849c0,0.396 0.076,0.778 0.229,1.144c0.335,0.61 1.006,0.915 2.013,0.915c0.518,-0 1.372,-0.321 2.562,-0.961c1.311,-0.732 2.363,-1.693 3.156,-2.882c0.885,-1.342 1.327,-2.715 1.327,-4.118c-0.122,-0.854 -0.793,-1.281 -2.013,-1.281c-0.427,0 -0.778,0.061 -1.052,0.183Zm2.745,7.137c-0.549,0.427 -1.037,0.793 -1.464,1.098c-0.427,0.305 -0.793,0.549 -1.098,0.732c2.44,-0.823 3.934,-2.043 4.483,-3.66l-1.921,1.83Zm-3.889,-6.13c0.336,-0.214 0.717,-0.32 1.144,-0.32c1.067,-0 1.601,0.518 1.601,1.555c0,1.129 -0.396,2.272 -1.189,3.431c-1.312,1.861 -2.486,2.791 -3.523,2.791c-0.64,-0 -1.06,-0.13 -1.258,-0.389c-0.198,-0.259 -0.297,-0.724 -0.297,-1.395c-0,-1.891 1.174,-3.782 3.522,-5.673Z" style="fill-rule:nonzero;stroke:#000;stroke-width:0.5px;"/><path d="M151.73,73.635c-1.068,2.105 -2.166,4.179 -3.294,6.222c-1.129,2.044 -2.333,4.072 -3.614,6.085c-0.214,0.396 -0.214,0.686 -0,0.869c0.488,0.366 1.022,0.549 1.601,0.549c0.915,-0 1.906,-0.427 2.974,-1.281c0.579,-0.427 1.075,-0.808 1.486,-1.144c0.412,-0.335 0.755,-0.625 1.03,-0.869l-0,-0.366c-0.488,0.427 -0.93,0.808 -1.327,1.144c-0.396,0.335 -0.747,0.64 -1.052,0.915c-0.885,0.732 -1.784,1.098 -2.699,1.098c-0.397,-0.214 -0.595,-0.473 -0.595,-0.778c0,-0.244 0.107,-0.519 0.32,-0.824l2.379,-3.751c0.336,-0.549 1.007,-1.647 1.007,-1.647c0.518,-0.701 1.021,-1.052 1.509,-1.052l0.458,-0c0.152,0.03 0.274,0.046 0.366,0.046l0.961,-0l-0,-0.183l-2.517,-0.183l2.882,-4.987c-0.152,-0.091 -0.304,-0.137 -0.457,-0.137c-0.152,-0 -0.389,0.046 -0.709,0.137c-0.32,0.092 -0.557,0.137 -0.709,0.137Z" style="fill-rule:nonzero;stroke:#000;stroke-width:0.5px;"/><path d="M158.135,78.347c-1.556,0.58 -2.822,1.297 -3.798,2.151c-1.616,1.433 -2.424,3.05 -2.424,4.849c-0,0.396 0.076,0.778 0.229,1.144c0.335,0.61 1.006,0.915 2.012,0.915c0.519,-0 1.373,-0.321 2.562,-0.961c1.312,-0.732 2.364,-1.693 3.157,-2.882c0.884,-1.342 1.327,-2.715 1.327,-4.118c-0.122,-0.854 -0.793,-1.281 -2.013,-1.281c-0.427,0 -0.778,0.061 -1.052,0.183Zm2.744,7.137c-0.548,0.427 -1.036,0.793 -1.463,1.098c-0.427,0.305 -0.793,0.549 -1.098,0.732c2.439,-0.823 3.934,-2.043 4.483,-3.66l-1.922,1.83Zm-3.888,-6.13c0.335,-0.214 0.717,-0.32 1.144,-0.32c1.067,-0 1.601,0.518 1.601,1.555c-0,1.129 -0.397,2.272 -1.19,3.431c-1.311,1.861 -2.485,2.791 -3.522,2.791c-0.641,-0 -1.06,-0.13 -1.258,-0.389c-0.199,-0.259 -0.298,-0.724 -0.298,-1.395c0,-1.891 1.174,-3.782 3.523,-5.673Z" style="fill-rule:nonzero;stroke:#000;stroke-width:0.5px;"/><path d="M170.624,77.753c-1.922,0.427 -3.568,1.143 -4.941,2.15c-1.586,1.128 -2.608,2.547 -3.065,4.255c-0.092,0.274 -0.137,0.594 -0.137,0.96c-0,0.671 0.19,1.228 0.572,1.67c0.381,0.442 0.892,0.663 1.532,0.663c0.153,0 0.343,-0.022 0.572,-0.068c0.229,-0.046 0.465,-0.107 0.709,-0.183c0.244,-0.076 0.473,-0.137 0.686,-0.183c0.214,-0.046 0.382,-0.069 0.504,-0.069c-0,0.183 -0.29,0.549 -0.87,1.098c-1.647,0.61 -2.905,1.083 -3.774,1.418c-0.869,0.336 -1.334,0.519 -1.395,0.549c-2.013,0.976 -3.431,2.074 -4.255,3.294c-0.244,0.244 -0.366,0.519 -0.366,0.824c0,1.25 0.549,1.875 1.647,1.875c0.244,0 0.587,-0.053 1.029,-0.16c0.443,-0.107 0.786,-0.16 1.03,-0.16c1.769,-0.518 3.309,-1.479 4.62,-2.882c0.946,-0.946 1.998,-2.455 3.157,-4.529c1.921,-0.702 3.401,-1.479 4.438,-2.333c1.555,-1.281 2.333,-2.272 2.333,-2.974l-0.183,0c-1.159,1.86 -3.157,3.294 -5.993,4.3l2.333,-4.025c0.701,-1.22 1.304,-2.257 1.807,-3.111c0.503,-0.854 0.877,-1.541 1.121,-2.059c-0.336,0.244 -0.671,0.366 -1.007,0.366c-0.183,-0 -0.518,-0.092 -1.006,-0.275c-0.641,-0.213 -1.007,-0.35 -1.098,-0.411Zm-2.562,1.098c1.098,-0.183 1.571,-0.275 1.418,-0.275c0.793,0 1.342,0.29 1.647,0.869l-2.104,3.798c-0.885,1.585 -1.967,2.683 -3.248,3.293c-1.22,0 -1.846,-0.411 -1.876,-1.235c0.244,-2.104 1.632,-4.254 4.163,-6.45Zm-10.156,14.09c0.793,-1.159 1.998,-2.043 3.614,-2.653c0.945,-0.336 1.761,-0.618 2.448,-0.847c0.686,-0.228 1.273,-0.419 1.761,-0.571c-0.58,0.884 -1.083,1.647 -1.51,2.287c-0.427,0.64 -0.793,1.174 -1.098,1.601c-1.006,1.495 -2.196,2.242 -3.568,2.242c-0.549,-0 -0.991,-0.061 -1.327,-0.183c-0.335,-0.336 -0.503,-0.717 -0.503,-1.144c-0,-0.274 0.061,-0.518 0.183,-0.732Z" style="fill-rule:nonzero;stroke:#000;stroke-width:0.5px;"/><path d="M176.754,83.105c0.61,-1.067 1.586,-2.318 2.928,-3.751c0.58,-0.641 1.22,-0.961 1.922,-0.961c0.061,0 0.244,0.031 0.549,0.092c0.67,0.427 1.113,0.793 1.326,1.098c-1.708,3.568 -3.339,5.916 -4.895,7.045c0.061,-0.031 0.229,-0.153 0.503,-0.366c0.275,-0.214 0.504,-0.275 0.687,-0.183c0.122,0.061 0.198,0.198 0.228,0.412c0.092,0.579 0.488,0.869 1.19,0.869c0.854,-0 1.875,-0.32 3.065,-0.961c1.22,-0.701 2.074,-1.388 2.562,-2.058c-1.556,1.433 -3.126,2.317 -4.712,2.653c-0.275,0.061 -0.496,-0.031 -0.664,-0.275c-0.167,-0.244 -0.221,-0.503 -0.16,-0.777l4.072,-6.725l-0,-0.641c-0.183,0.031 -0.473,0.122 -0.869,0.275c-0.031,-0.031 -0.138,-0.107 -0.321,-0.229c-0.183,-0.122 -0.457,-0.259 -0.823,-0.412c-0.366,-0.152 -0.732,-0.229 -1.098,-0.229c-0.854,0 -1.845,0.336 -2.974,1.007c-1.006,0.579 -1.83,1.235 -2.47,1.967c-0.488,0.58 -0.869,1.029 -1.144,1.35c-0.274,0.32 -0.442,0.541 -0.503,0.663c-0.579,0.854 -0.869,1.616 -0.869,2.287c-0,0.61 0.198,1.205 0.595,1.785c0.213,0.213 0.594,0.32 1.143,0.32c0.824,-0 1.54,-0.214 2.15,-0.641c-0.244,0.122 -0.472,0.199 -0.686,0.229c-0.305,0.061 -0.518,0.031 -0.64,-0.091c-0.366,-0.092 -0.587,-0.343 -0.664,-0.755c-0.076,-0.412 -0.145,-0.816 -0.206,-1.213c0.153,-0.366 0.29,-0.693 0.412,-0.983c0.122,-0.29 0.244,-0.557 0.366,-0.801Z" style="fill-rule:nonzero;stroke:#000;stroke-width:0.5px;"/><path d="M190.799,78.393l-4.209,6.039l0.046,0.229c0.03,-0.031 0.175,-0.214 0.434,-0.549c0.26,-0.336 0.649,-0.839 1.167,-1.51c0.519,-0.701 0.961,-1.258 1.327,-1.67c0.366,-0.411 0.64,-0.694 0.823,-0.846c0.092,-0.092 0.198,-0.137 0.32,-0.137c0.153,-0 0.549,0.152 1.19,0.457c-0.122,0.244 -0.305,0.534 -0.549,0.869c-0.244,0.336 -0.534,0.717 -0.869,1.144c-0.702,0.854 -1.159,1.51 -1.373,1.967c-0.366,0.702 -0.549,1.251 -0.549,1.647c0,0.885 0.443,1.327 1.327,1.327c0.427,-0 0.9,-0.168 1.418,-0.503c0.976,-0.702 2.074,-1.815 3.294,-3.34c-2.348,2.257 -3.706,3.385 -4.072,3.385c-0.579,0 -0.869,-0.472 -0.869,-1.418c0,-0.427 0.336,-1.265 1.007,-2.516c0.335,-0.64 0.945,-1.403 1.83,-2.287c0.488,-0.488 0.892,-0.908 1.212,-1.258c0.32,-0.351 0.557,-0.633 0.709,-0.847c-0.061,-0.03 -0.152,-0.046 -0.274,-0.046c-0.305,0 -0.671,0.199 -1.098,0.595c-0.397,0.397 -0.748,0.595 -1.053,0.595c-0.183,-0 -0.381,-0.061 -0.594,-0.183c0.03,-0.061 0.045,-0.122 0.045,-0.183c0,-0.092 0.016,-0.183 0.046,-0.275c0.031,-0.122 0.015,-0.244 -0.046,-0.366c-0.152,-0.244 -0.305,-0.366 -0.457,-0.366c-0.092,0 -0.153,0.016 -0.183,0.046Z" style="fill-rule:nonzero;stroke:#000;stroke-width:0.5px;"/><path d="M200.315,78.119c-0.122,-0.214 -0.366,-0.321 -0.732,-0.321l-1.053,0l-3.934,7c-0.671,1.22 -1.289,2.356 -1.853,3.408c-0.564,1.052 -1.09,2.051 -1.578,2.997c-0.671,1.311 -1.266,2.432 -1.784,3.362c-0.519,0.93 -0.946,1.655 -1.281,2.173c-0.092,0 -0.061,0 0.091,0c0.122,0 0.366,0.016 0.732,0.046c0.366,0 0.625,-0.076 0.778,-0.229c0.945,-1.86 1.899,-3.637 2.859,-5.329c0.961,-1.693 1.96,-3.332 2.997,-4.918c0.457,0.671 1.144,1.006 2.058,1.006c0.336,0 0.641,-0.046 0.915,-0.137c1.8,-0.824 3.294,-1.906 4.484,-3.248c1.403,-1.525 2.104,-3.172 2.104,-4.941c-0.366,-0.946 -1.067,-1.418 -2.104,-1.418c-0.58,-0 -1.479,0.183 -2.699,0.549Zm6.496,4.986c-2.044,2.044 -3.706,3.264 -4.987,3.66c1.312,-0.366 2.333,-0.831 3.065,-1.395c0.732,-0.564 1.373,-1.319 1.922,-2.265Zm-10.476,2.242c0.122,-0.305 0.312,-0.785 0.571,-1.441c0.26,-0.656 0.603,-1.517 1.03,-2.585c0.915,-1.769 1.982,-2.653 3.202,-2.653c0.671,-0 1.403,0.259 2.196,0.777c0,3.02 -1.525,5.307 -4.575,6.863c-0.549,0.183 -0.976,0.274 -1.281,0.274c-0.549,0 -0.93,-0.412 -1.143,-1.235Z" style="fill-rule:nonzero;stroke:#000;stroke-width:0.5px;"/><path d="M221.359,64.989c-1.983,1.067 -3.706,2.516 -5.17,4.346c-0.701,0.854 -1.426,1.845 -2.173,2.974c-0.747,1.128 -1.548,2.424 -2.402,3.888c-1.311,2.227 -2.317,3.927 -3.019,5.101c-0.701,1.174 -1.083,1.838 -1.144,1.99c-1.372,2.257 -2.104,3.614 -2.196,4.072c0.915,-0 1.541,-0.183 1.876,-0.549c1.22,-2.44 1.952,-3.843 2.196,-4.209c0.946,-1.555 1.967,-2.73 3.065,-3.523c0.671,-0.274 1.205,-0.411 1.601,-0.411c0.549,-0 0.992,0.213 1.327,0.64c-0.244,0.885 -0.747,1.922 -1.51,3.111c-0.518,0.793 -0.93,1.441 -1.235,1.944c-0.305,0.504 -0.503,0.847 -0.595,1.03c-0.183,0.244 -0.274,0.549 -0.274,0.915c-0,0.335 0.107,0.594 0.32,0.777c0.366,0.183 0.747,0.275 1.144,0.275c0.976,-0 1.982,-0.442 3.019,-1.327c0.915,-0.762 1.602,-1.662 2.059,-2.699c-1.708,2.287 -3.248,3.431 -4.621,3.431c-0.213,-0.122 -0.32,-0.32 -0.32,-0.595c0,-0.488 0.29,-1.174 0.869,-2.058c0.275,-0.336 0.549,-0.671 0.824,-1.007c0.274,-0.335 0.534,-0.671 0.778,-1.006c0.64,-0.854 0.96,-1.617 0.96,-2.288c0,-0.427 -0.137,-0.869 -0.411,-1.326c-0.458,-0.275 -1.007,-0.412 -1.647,-0.412c-1.068,-0 -2.12,0.29 -3.157,0.869c0.305,-0.396 0.427,-0.671 0.366,-0.823l6.542,-4.941c2.623,-1.983 4.209,-4.361 4.758,-7.137c0.091,-0.427 -0.084,-0.724 -0.526,-0.892c-0.443,-0.168 -0.877,-0.221 -1.304,-0.16Zm-2.15,1.647c0.915,-0.427 1.57,-0.641 1.967,-0.641c0.427,0 0.61,0.168 0.549,0.504c-1.037,3.629 -3.782,6.755 -8.235,9.378c1.281,-2.348 2.394,-4.285 3.34,-5.81c0.945,-1.525 1.738,-2.669 2.379,-3.431Z" style="fill-rule:nonzero;stroke:#000;stroke-width:0.5px;"/><path d="M213.124,95.274c-0.091,-0.183 -0.137,-0.366 -0.137,-0.549c-0,-0.549 0.93,-1.662 2.791,-3.339l4.849,-3.065c-2.318,1.037 -4.331,2.287 -6.039,3.751c-0.579,0.518 -1.014,0.9 -1.304,1.144c-0.289,0.244 -0.45,0.381 -0.48,0.411c-0.61,0.702 -0.915,1.388 -0.915,2.059c-0,0.488 0.221,0.778 0.663,0.869c0.443,0.092 0.877,0.183 1.304,0.275c2.166,-0.61 4.118,-1.784 5.856,-3.523c1.311,-1.342 2.684,-3.233 4.117,-5.673c1.739,-0.396 3.889,-1.54 6.451,-3.431l-0,-0.183c-0,-0.091 0.015,-0.198 0.046,-0.32c0.061,-0.244 0.015,-0.366 -0.138,-0.366c-1.342,1.677 -3.217,2.897 -5.627,3.66c1.068,-2.623 2.776,-5.505 5.124,-8.647c-0.152,-0.274 -0.32,-0.411 -0.503,-0.411c-0.092,-0 -0.252,0.03 -0.48,0.091c-0.229,0.061 -0.405,0.092 -0.527,0.092c-0.152,-0 -0.244,-0.016 -0.274,-0.046c-1.373,2.623 -2.318,4.3 -2.836,5.032c-1.19,1.678 -2.623,2.882 -4.301,3.614c-0.274,0.092 -0.541,0.046 -0.8,-0.137c-0.26,-0.183 -0.511,-0.366 -0.755,-0.549l4.392,-7.777c-0.153,-0.031 -0.298,-0.053 -0.435,-0.069c-0.137,-0.015 -0.267,-0.023 -0.389,-0.023c-0.335,0 -0.579,0.077 -0.732,0.229l-4.071,6.679c-0.092,0.183 -0.138,0.504 -0.138,0.961c0,0.885 0.458,1.327 1.373,1.327c0.64,-0 1.769,-0.32 3.385,-0.961c0,0.397 -0.259,0.763 -0.778,1.098c-0.671,0.427 -1.021,0.686 -1.052,0.778l1.327,-0.366c-1.617,2.775 -2.44,4.178 -2.471,4.209c-1.22,2.013 -2.211,3.141 -2.973,3.385c-1.19,0.305 -1.952,0.458 -2.288,0.458c-0.64,-0 -1.052,-0.229 -1.235,-0.687Z" style="fill-rule:nonzero;stroke:#000;stroke-width:0.5px;"/></g></g></svg>