<?xml version="1.0" encoding="UTF-8" standalone="no"?><!DOCTYPE svg PUBLIC "-//W3C//DTD SVG 1.1//EN" "http://www.w3.org/Graphics/SVG/1.1/DTD/svg11.dtd"><svg width="100%" height="100%" viewBox="0 0 1042 650" version="1.1" xmlns="http://www.w3.org/2000/svg" xmlns:xlink="http://www.w3.org/1999/xlink" xml:space="preserve" xmlns:serif="http://www.serif.com/" style="fill-rule:evenodd;clip-rule:evenodd;stroke-linejoin:round;stroke-miterlimit:2;"><rect x="0" y="0" width="1041.67" height="650" style="fill:#fff;"/><g><path d="M116.475,303.467c-0.6,1.358 -1.058,2.691 -1.371,4.004c-1.117,5.212 -1.675,9.125 -1.675,11.729c0,9.433 4.279,18.433 12.846,26.996c7.321,7.321 17.558,10.983 30.717,10.983c7.695,0 15.079,-1.179 22.154,-3.537c18.367,-9.063 51.3,-18.234 56.017,-31.888c-4.717,-7.321 -7.076,-15.946 -7.076,-25.875c0,-6.95 1.367,-13.096 4.096,-18.433c3.475,-3.475 7.2,-5.213 11.171,-5.213c3.475,0 6.513,0.934 9.121,2.796c0.496,0.492 1.521,1.579 3.075,3.254c1.55,1.675 3.629,4.004 6.233,6.984c1.738,-1.488 3.879,-3.634 6.425,-6.425c2.542,-2.792 5.613,-6.296 9.213,-10.517c3.229,-3.725 6.208,-6.95 8.937,-9.679c2.729,-2.734 5.275,-4.967 7.634,-6.704c4.716,-3.6 10.55,-5.4 17.5,-5.4c1.362,-0 2.666,0.062 3.908,0.187c1.242,0.125 2.733,0.808 4.471,2.046c-4.967,2.979 -9.309,7.325 -13.034,13.033c-1.241,1.988 -2.733,4.375 -4.466,7.167c-1.742,2.792 -3.788,6.054 -6.146,9.775c-1.367,2.854 -3.258,6.454 -5.679,10.8c-2.421,4.342 -5.242,9.492 -8.471,15.45l-16.383,29.042c-2.855,4.966 -5.43,9.587 -7.725,13.871c-2.296,4.283 -4.313,8.345 -6.05,12.191c-0.992,0.625 -2.171,0.934 -3.538,0.934c-1.612,-0.125 -2.729,-0.188 -3.35,-0.188l-0.187,0c1.366,-2.483 3.104,-5.675 5.212,-9.587c2.113,-3.909 4.533,-8.471 7.263,-13.684c4.466,-8.687 6.7,-17.129 6.7,-25.321c-0,-5.458 -1.238,-10.983 -3.721,-16.566c-2.113,2.483 -4.779,5.925 -8.009,10.333c-3.225,4.404 -7.012,9.771 -11.354,16.1c2.604,3.85 7.2,5.775 13.775,5.775l-0.183,4.654c-4.842,0 -10.179,-2.358 -16.013,-7.075c-20.725,24.946 -64.02,35.238 -87.108,35.238c-6.454,-0 -11.85,-0.684 -16.196,-2.05c-5.954,-2.109 -11.541,-5.771 -16.754,-10.984c-5.833,-5.833 -9.121,-11.604 -9.867,-17.312c-0.25,-2.358 -0.466,-4.25 -0.654,-5.679c-0.183,-1.425 -0.275,-2.388 -0.275,-2.884c0,-10.8 4.775,-20.975 14.334,-30.533c7.516,-6.921 11.104,-7.579 13.895,-9.117c2.442,-1.345 10.592,-3.875 21.075,-4.291c9.296,-0.367 17.08,1.975 23.355,7.033c2.945,2.458 5.783,5.529 8.512,9.208c1.825,3.717 2.829,7.842 3.013,12.38c0.341,8.625 -1.5,16.045 -5.521,22.266c-8.229,10.934 -18.154,16.629 -29.771,17.088c-4,0.158 -7.479,-0.271 -10.425,-1.292c-2.95,-1.017 -7.054,-3.742 -8.883,-5.733c-6.005,-6.525 -7.03,-16.425 -6.6,-19.988c0.525,-4.371 3.525,-11.642 5.412,-13.887c0.8,-0.904 1.433,-1.638 1.904,-2.2c0.475,-0.563 0.804,-0.925 0.984,-1.096c3.966,-3.671 9.033,-5.184 15.195,-4.521c8.134,2.133 13.925,5.742 17.371,10.817c2.479,3.654 3.729,7.412 3.754,11.275c-0.016,1.833 -0.25,3.787 -0.704,5.858c-0.691,1.717 -1.721,3.208 -3.087,4.471c-2.6,2.408 -5.379,3.616 -8.342,3.633c-5.5,-0.446 -9.8,-2.95 -12.9,-7.521c-1.067,-1.57 -1.817,-3.087 -2.25,-4.545c-0.433,-1.459 -0.637,-2.825 -0.604,-4.092c0.029,-1.267 0.242,-2.375 0.642,-3.321c0.395,-0.946 0.912,-1.712 1.554,-2.304c1.683,-1.563 3.341,-1.692 4.971,-0.388c0.787,0.834 1.045,1.925 0.762,3.259c-0.621,-0.584 -1.383,-0.867 -2.3,-0.846c-0.912,0.021 -1.692,0.325 -2.329,0.916c-1.504,1.392 -1.85,3.78 -1.042,7.163c0.429,1.833 1.109,3.437 2.038,4.808c2.104,3.096 4.862,4.754 8.283,4.979c3.383,0.171 5.942,-0.545 7.675,-2.15l0.75,-0.695c2.142,-1.984 3.567,-4.542 4.263,-7.667c0.945,-4.513 -0.25,-9.233 -3.592,-14.154c-1.308,-1.929 -2.863,-3.671 -4.663,-5.229c-2.166,-1.55 -5.166,-2.525 -9.012,-2.938c-3.808,-0.358 -6.842,0.096 -9.1,1.363c-2.225,1.316 -3.817,2.416 -4.775,3.304c-3.463,3.208 -5.579,8.021 -6.35,14.433c-0.096,0.813 -0.146,1.625 -0.15,2.438c-0.804,5.775 4.312,13.05 5.033,14.425c0.892,1.266 1.85,2.445 2.859,3.533c1.579,1.375 3.62,2.592 6.12,3.646c3.555,1.525 7.071,2.221 10.555,2.083c7.875,-0.312 14.329,-3.9 19.358,-10.767c4.9,-6.862 7.233,-13.166 7.004,-18.916l-0.096,-2.496c-0.283,-7.108 -2.471,-13.463 -6.575,-19.058c-6,-7.946 -15.262,-11.671 -27.783,-11.175c-4.908,0.195 -9.1,2.395 -14.075,4.104c-5.458,2.491 -11.892,6.241 -17.8,13.75c-1.133,1.471 -2.175,2.916 -3.125,4.346Zm196.508,-52.83c-1.12,-0.125 -2.05,-0.216 -2.796,-0.279c-0.741,-0.062 -1.366,-0.091 -1.862,-0.091c-6.7,-0 -12.908,2.295 -18.617,6.887c-2.233,1.738 -4.529,3.942 -6.887,6.608c-2.359,2.671 -4.779,5.742 -7.259,9.217l-11.17,17.313c1.362,4.095 2.046,8.625 2.046,13.591c-0,2.854 -0.25,6.142 -0.746,9.867c-0.496,3.721 -1.238,7.758 -2.234,12.1c3.846,-6.575 7.634,-13.092 11.359,-19.546c3.72,-6.454 7.508,-12.908 11.354,-19.362c9.433,-15.392 18.621,-27.242 27.554,-35.559l-0.742,-0.746Zm-70.562,27.742c-1.488,0.246 -2.758,0.496 -3.817,0.746c-1.054,0.246 -1.954,0.587 -2.7,1.021c-0.741,0.433 -1.396,1.054 -1.954,1.862c-0.558,0.809 -1.208,1.829 -1.954,3.071c-1.738,3.104 -2.608,6.95 -2.608,11.542c-0,7.325 2.733,14.583 8.191,21.783c10.304,-11.417 16.946,-20.787 19.921,-28.112c-4.962,-7.942 -9.987,-11.913 -15.079,-11.913Z" style="stroke:#000;stroke-width:1.75px;"/><path d="M339.975,274.096c-0.496,-0.125 -1.613,-0.188 -3.35,-0.188c-5.583,0 -11.046,2.609 -16.383,7.821c-0.992,0.867 -2.45,2.479 -4.375,4.842c-1.5,1.837 -3.363,4.166 -5.579,6.991c-0.626,0.796 -1.28,1.63 -1.963,2.5c-11.542,14.896 -23.642,35.559 -36.3,61.996c1.738,3.23 4.279,4.842 7.633,4.842c1.738,0 6.45,-0.933 14.146,-2.796c4.842,-1.116 9.433,-3.721 13.779,-7.817c4.217,-4.22 6.329,-8.749 6.329,-13.591c0,-1.983 -0.433,-4.096 -1.304,-6.329c-1.862,-4.592 -5.462,-6.888 -10.796,-6.888c-1.366,0 -3.416,0.313 -6.145,0.929l-0,-0.746l19.55,-13.775c14.891,-10.55 23.891,-21.966 26.991,-34.254l-2.233,-3.537Zm-21.967,74.654c-0.621,0.867 -1.304,1.708 -2.05,2.512c-0.741,0.809 -1.612,1.521 -2.604,2.142c-0.25,0.25 -0.837,0.683 -1.771,1.304c-0.929,0.621 -2.2,1.367 -3.816,2.234l-5.584,2.791c-2.733,1.242 -4.221,2.296 -4.466,3.167c2.108,-0.621 3.908,-1.242 5.395,-1.862c1.492,-0.621 2.734,-1.18 3.725,-1.675c4.842,-2.484 8.317,-5.275 10.425,-8.38l0.746,-2.233Zm-39.283,8.379c2.729,-5.587 4.779,-9.775 6.146,-12.566c1.362,-2.792 2.108,-4.313 2.233,-4.563c4.592,-7.821 8.813,-11.729 12.658,-11.729c2.359,-0 4.375,1.15 6.05,3.446c1.675,2.296 2.513,4.683 2.513,7.166c-0,3.6 -1.675,7.321 -5.025,11.171c-3.35,3.971 -6.767,6.579 -10.238,7.817c-5.091,1.862 -8.129,2.796 -9.125,2.796c-1.487,-0 -2.854,-0.563 -4.095,-1.679l-1.117,-1.859Zm52.5,-80.425c1.862,-0.375 3.35,0.371 4.467,2.233c-1.613,8.067 -6.763,16.505 -15.45,25.317c-3.475,3.475 -7.167,6.733 -11.08,9.775c-3.908,3.042 -8.158,5.925 -12.75,8.654l14.709,-23.829c5.958,-9.679 12.658,-17.062 20.104,-22.15Z" style="stroke:#000;stroke-width:1.75px;"/><path d="M340.904,310.583c-2.358,0 -3.533,1.059 -3.533,3.167c-0,0.25 0.121,0.621 0.371,1.117c0.621,1.366 1.487,2.046 2.604,2.046c0.375,-0 0.933,-0.121 1.675,-0.371c1.617,-0.867 2.362,-1.984 2.237,-3.35c0,-1.738 -1.116,-2.609 -3.354,-2.609Zm-9.679,15.825l-16.942,30.163c-0.37,0.371 -0.558,0.929 -0.558,1.675c0,2.604 1.179,4.096 3.538,4.467c0.62,0.125 1.208,0.216 1.766,0.279c0.558,0.062 1.088,0.091 1.583,0.091c3.971,0 7.946,-1.612 11.917,-4.837c0.867,-0.871 3.846,-4.221 8.933,-10.054l-12.47,10.612c-2.979,1.367 -4.779,2.046 -5.4,2.046c-1.488,0 -2.484,-0.746 -2.98,-2.233l16.013,-32.021l-5.4,-0.188Z" style="stroke:#000;stroke-width:1.75px;"/><path d="M370.133,323.804c-7.816,1.738 -14.52,4.654 -20.104,8.75c-6.454,4.592 -10.612,10.363 -12.475,17.313c-0.371,1.116 -0.558,2.42 -0.558,3.908c-0,2.729 0.775,4.996 2.329,6.796c1.55,1.8 3.629,2.7 6.233,2.7c0.621,-0 1.4,-0.092 2.329,-0.279c0.93,-0.188 1.892,-0.434 2.884,-0.746c0.996,-0.309 1.925,-0.559 2.796,-0.742c0.866,-0.187 1.55,-0.279 2.045,-0.279c0,0.742 -1.179,2.233 -3.537,4.467c-6.7,2.483 -11.821,4.404 -15.358,5.771c-3.538,1.366 -5.43,2.112 -5.675,2.233c-8.192,3.971 -13.963,8.442 -17.317,13.404c-0.992,0.992 -1.488,2.108 -1.488,3.354c0,5.088 2.234,7.634 6.7,7.634c0.992,-0 2.392,-0.221 4.188,-0.655c1.8,-0.433 3.2,-0.65 4.192,-0.65c7.2,-2.112 13.466,-6.02 18.8,-11.729c3.85,-3.85 8.133,-9.991 12.845,-18.433c7.821,-2.854 13.842,-6.021 18.059,-9.492c6.333,-5.217 9.496,-9.246 9.496,-12.104l-0.742,-0c-4.717,7.571 -12.85,13.404 -24.392,17.5l9.496,-16.383c2.854,-4.963 5.308,-9.184 7.354,-12.659c2.05,-3.475 3.567,-6.266 4.563,-8.379c-1.367,0.996 -2.734,1.492 -4.096,1.492c-0.746,-0 -2.113,-0.375 -4.096,-1.117c-2.608,-0.871 -4.096,-1.429 -4.471,-1.675Zm-10.425,4.467c4.467,-0.746 6.392,-1.117 5.771,-1.117c3.229,0 5.463,1.179 6.704,3.538l-8.566,15.45c-3.596,6.454 -8.005,10.925 -13.217,13.404c-4.962,-0 -7.508,-1.675 -7.633,-5.025c0.996,-8.563 6.641,-17.313 16.941,-26.25Zm-41.329,57.341c3.225,-4.716 8.129,-8.316 14.709,-10.8c3.845,-1.362 7.166,-2.512 9.958,-3.445c2.796,-0.93 5.183,-1.705 7.166,-2.325c-2.354,3.6 -4.404,6.704 -6.141,9.308c-1.738,2.608 -3.225,4.779 -4.467,6.517c-4.096,6.083 -8.937,9.125 -14.521,9.125c-2.233,-0 -4.037,-0.25 -5.4,-0.746c-1.366,-1.367 -2.046,-2.921 -2.046,-4.654c0,-1.117 0.246,-2.113 0.742,-2.98Z" style="stroke:#000;stroke-width:1.75px;"/><path d="M407.929,326.408c-6.454,1.988 -11.916,5.338 -16.383,10.054c-4.967,5.088 -7.45,10.796 -7.45,17.13c-0,1.737 0.187,3.412 0.558,5.025c0.871,2.979 3.229,4.466 7.075,4.466c1.742,0 4.284,-0.558 7.633,-1.675c9.93,-3.72 14.896,-8.437 14.896,-14.15c-1.366,3.975 -3.166,6.704 -5.4,8.192c-5.087,3.725 -9,5.587 -11.729,5.587c-3.475,0 -5.833,-1.366 -7.075,-4.095c-0.371,-1.242 -0.558,-2.671 -0.558,-4.284c-0,-3.225 1.179,-5.646 3.537,-7.258c3.35,-0.746 6.209,-1.492 8.563,-2.238c2.358,-0.741 4.221,-1.425 5.587,-2.045c4.842,-2.73 7.509,-6.517 8.005,-11.359c0.25,-2.479 -1.242,-3.721 -4.467,-3.721c-0.25,0 -0.621,0.03 -1.117,0.092c-0.496,0.063 -1.054,0.158 -1.675,0.279Zm-0.558,3.167c0.621,-0.125 1.146,0 1.579,0.371c0.438,0.371 0.529,0.871 0.279,1.492c0,2.854 -1.612,5.52 -4.837,8.004c-2.484,1.983 -5.4,3.35 -8.75,4.096l-1.492,-0.746c3.35,-7.821 7.758,-12.225 13.221,-13.217Zm17.5,-23.458c1.487,-0.871 2.108,-1.988 1.858,-3.35c-0.121,-1.617 -1.116,-2.238 -2.975,-1.863c-0.746,0.125 -1.429,0.496 -2.05,1.117l-13.216,12.846c-0.496,0.496 -0.621,0.808 -0.375,0.929l-0,0.558l0.375,0.188c0.37,0.125 0.679,0.187 0.929,0.187l15.454,-10.612Z" style="stroke:#000;stroke-width:1.75px;"/><path d="M452.796,285.454c-1.617,3.225 -3.571,6.854 -5.867,10.888c-2.296,4.033 -4.933,8.596 -7.912,13.683c-8.192,13.529 -14.613,24.388 -19.267,32.579c-4.654,8.192 -7.662,13.842 -9.029,16.942c-1.117,2.237 0.062,3.354 3.537,3.354c1.863,0 4.217,-0.312 7.075,-0.933c5.459,-1.738 9.367,-4.217 11.73,-7.446l4.095,-5.958c-8.191,7.82 -14.212,12.037 -18.058,12.662c-0.996,0 -1.8,-0.375 -2.421,-1.121c-0.621,-0.741 -0.683,-1.55 -0.187,-2.416c1.241,-2.113 2.825,-4.78 4.745,-8.009c1.925,-3.225 4.192,-7.012 6.796,-11.354l11.917,-19.362c1.738,-2.98 3.754,-6.421 6.05,-10.334c2.296,-3.908 4.871,-8.346 7.725,-13.312c3.354,-4.467 5.275,-7.817 5.771,-10.05c-0.496,-0 -1.117,-0.034 -1.858,-0.096c-0.746,-0.063 -1.617,-0.154 -2.609,-0.275c-0.992,-0 -1.737,0.183 -2.233,0.558Z" style="stroke:#000;stroke-width:1.75px;"/></g><path d="M106.667,366.288c-6.825,-0 -13.025,-2.788 -17.517,-7.28c-4.492,-4.491 -7.283,-10.691 -7.283,-17.516l-0,-55.796c-0,-6.821 2.791,-13.025 7.283,-17.513c4.492,-4.495 10.692,-7.283 17.517,-7.283l10.316,0c0.971,-3.158 2.88,-5.937 5.221,-8.183c3.984,-3.821 9.454,-6.175 13.688,-6.175l29.112,-0c4.234,-0 9.704,2.354 13.688,6.175c2.341,2.246 4.246,5.025 5.221,8.183l10.32,0c6.821,0 13.021,2.792 17.513,7.283c4.492,4.492 7.283,10.692 7.283,17.513l0,55.796c0,6.825 -2.791,13.025 -7.283,17.516c-4.488,4.492 -10.692,7.279 -17.513,7.279" style="fill:none;stroke:#000;stroke-width:5.46px;"/><g><g><path d="M487.338,325.496c-0.509,-0.892 -1.525,-1.338 -3.05,-1.338l-4.384,0l-16.396,29.167c-2.796,5.083 -5.366,9.817 -7.716,14.2c-2.354,4.383 -4.546,8.546 -6.579,12.488c-2.796,5.462 -5.271,10.133 -7.434,14.008c-2.158,3.875 -3.937,6.896 -5.337,9.054c-0.379,0 -0.255,0 0.383,0c0.508,0 1.525,0.067 3.05,0.192c1.525,-0 2.604,-0.317 3.238,-0.954c3.941,-7.75 7.912,-15.155 11.916,-22.205c4,-7.054 8.163,-13.883 12.483,-20.491c1.909,2.796 4.767,4.191 8.58,4.191c1.395,0 2.666,-0.191 3.812,-0.57c7.496,-3.434 13.725,-7.942 18.679,-13.534c5.846,-6.354 8.771,-13.216 8.771,-20.587c-1.525,-3.942 -4.45,-5.909 -8.771,-5.909c-2.412,0 -6.162,0.763 -11.245,2.288Zm27.066,20.775c-8.512,8.517 -15.437,13.6 -20.775,15.25c5.463,-1.525 9.721,-3.463 12.771,-5.813c3.05,-2.35 5.717,-5.495 8.004,-9.437Zm-43.65,9.342c0.508,-1.271 1.304,-3.271 2.384,-6.005c1.079,-2.733 2.508,-6.32 4.287,-10.77c3.813,-7.371 8.262,-11.055 13.342,-11.055c2.796,0 5.846,1.08 9.15,3.238c-0,12.583 -6.355,22.112 -19.059,28.596c-2.287,0.762 -4.066,1.141 -5.337,1.141c-2.288,0 -3.879,-1.716 -4.767,-5.145Z" style="fill-rule:nonzero;stroke:#000;stroke-width:2.08px;"/><path d="M575.021,270.788c-8.258,4.445 -15.438,10.483 -21.538,18.108c-2.925,3.558 -5.941,7.687 -9.054,12.392c-3.116,4.7 -6.45,10.1 -10.008,16.2c-5.467,9.279 -9.658,16.362 -12.583,21.254c-2.921,4.891 -4.509,7.658 -4.763,8.291c-5.721,9.405 -8.771,15.059 -9.15,16.967c3.813,0 6.417,-0.762 7.817,-2.287c5.079,-10.167 8.129,-16.013 9.146,-17.538c3.941,-6.479 8.2,-11.375 12.775,-14.679c2.795,-1.142 5.016,-1.713 6.67,-1.713c2.288,0 4.13,0.888 5.525,2.667c-1.012,3.688 -3.112,8.008 -6.287,12.963c-2.163,3.304 -3.875,6.004 -5.146,8.1c-1.271,2.1 -2.1,3.529 -2.479,4.291c-0.763,1.017 -1.146,2.288 -1.146,3.813c0,1.396 0.446,2.475 1.338,3.237c1.525,0.763 3.112,1.146 4.762,1.146c4.067,0 8.263,-1.842 12.583,-5.529c3.813,-3.175 6.671,-6.925 8.575,-11.246c-7.116,9.529 -13.533,14.296 -19.25,14.296c-0.891,-0.508 -1.333,-1.333 -1.333,-2.479c0,-2.034 1.204,-4.892 3.621,-8.575c1.142,-1.4 2.287,-2.796 3.429,-4.196c1.146,-1.396 2.225,-2.796 3.242,-4.192c2.666,-3.558 4.004,-6.737 4.004,-9.533c-0,-1.779 -0.575,-3.621 -1.717,-5.525c-1.908,-1.146 -4.196,-1.717 -6.862,-1.717c-4.446,0 -8.834,1.209 -13.154,3.621c1.27,-1.65 1.779,-2.796 1.525,-3.429l27.258,-20.588c10.929,-8.262 17.537,-18.17 19.825,-29.737c0.383,-1.779 -0.35,-3.017 -2.192,-3.717c-1.841,-0.7 -3.654,-0.921 -5.433,-0.666Zm-8.958,6.862c3.812,-1.779 6.545,-2.671 8.195,-2.671c1.779,0 2.542,0.7 2.288,2.1c-4.321,15.121 -15.759,28.146 -34.308,39.075c5.337,-9.783 9.975,-17.854 13.912,-24.208c3.942,-6.354 7.246,-11.121 9.912,-14.296Z" style="fill-rule:nonzero;stroke:#000;stroke-width:2.08px;"/><path d="M588.175,326.446c-6.483,2.416 -11.754,5.404 -15.821,8.962c-6.737,5.971 -10.104,12.709 -10.104,20.204c0,1.65 0.317,3.242 0.954,4.767c1.396,2.542 4.192,3.813 8.388,3.813c2.158,-0 5.716,-1.338 10.675,-4.004c5.462,-3.05 9.846,-7.055 13.15,-12.009c3.687,-5.591 5.529,-11.312 5.529,-17.158c-0.508,-3.558 -3.304,-5.338 -8.388,-5.338c-1.779,0 -3.241,0.255 -4.383,0.763Zm11.438,29.737c-2.288,1.78 -4.321,3.305 -6.1,4.575c-1.78,1.271 -3.305,2.288 -4.575,3.05c10.166,-3.429 16.391,-8.512 18.679,-15.25l-8.004,7.625Zm-16.205,-25.541c1.4,-0.892 2.988,-1.334 4.767,-1.334c4.446,0 6.671,2.159 6.671,6.48c-0,4.704 -1.65,9.466 -4.954,14.295c-5.467,7.755 -10.359,11.63 -14.679,11.63c-2.667,-0 -4.417,-0.542 -5.242,-1.621c-0.825,-1.079 -1.238,-3.017 -1.238,-5.813c0,-7.879 4.892,-15.758 14.675,-23.637Z" style="fill-rule:nonzero;stroke:#000;stroke-width:2.08px;"/><path d="M632.208,306.813c-4.45,8.77 -9.025,17.412 -13.725,25.925c-4.704,8.516 -9.721,16.966 -15.058,25.354c-0.892,1.65 -0.892,2.858 0,3.62c2.033,1.526 4.258,2.288 6.671,2.288c3.812,0 7.941,-1.779 12.391,-5.337c2.413,-1.78 4.48,-3.367 6.192,-4.767c1.717,-1.396 3.146,-2.604 4.292,-3.621l-0,-1.525c-2.034,1.779 -3.875,3.367 -5.529,4.767c-1.65,1.395 -3.113,2.666 -4.384,3.812c-3.687,3.05 -7.433,4.575 -11.246,4.575c-1.654,-0.892 -2.479,-1.971 -2.479,-3.242c0,-1.016 0.446,-2.162 1.334,-3.433l9.912,-15.629c1.4,-2.288 4.196,-6.863 4.196,-6.863c2.158,-2.92 4.254,-4.383 6.287,-4.383l1.909,0c0.633,0.125 1.141,0.192 1.525,0.192l4.004,-0l-0,-0.763l-10.488,-0.762l12.009,-20.779c-0.634,-0.38 -1.267,-0.571 -1.904,-0.571c-0.634,-0 -1.621,0.191 -2.955,0.571c-1.333,0.383 -2.32,0.57 -2.954,0.57Z" style="fill-rule:nonzero;stroke:#000;stroke-width:2.08px;"/><path d="M658.896,326.446c-6.484,2.416 -11.758,5.404 -15.825,8.962c-6.733,5.971 -10.1,12.709 -10.1,20.204c-0,1.65 0.317,3.242 0.954,4.767c1.396,2.542 4.192,3.813 8.383,3.813c2.163,-0 5.721,-1.338 10.675,-4.004c5.467,-3.05 9.85,-7.055 13.155,-12.009c3.683,-5.591 5.529,-11.312 5.529,-17.158c-0.509,-3.558 -3.304,-5.338 -8.388,-5.338c-1.779,0 -3.241,0.255 -4.383,0.763Zm11.433,29.737c-2.283,1.78 -4.316,3.305 -6.096,4.575c-1.779,1.271 -3.304,2.288 -4.575,3.05c10.163,-3.429 16.392,-8.512 18.68,-15.25l-8.009,7.625Zm-16.2,-25.541c1.396,-0.892 2.988,-1.334 4.767,-1.334c4.446,0 6.671,2.159 6.671,6.48c-0,4.704 -1.654,9.466 -4.959,14.295c-5.462,7.755 -10.354,11.63 -14.675,11.63c-2.67,-0 -4.416,-0.542 -5.241,-1.621c-0.829,-1.079 -1.242,-3.017 -1.242,-5.813c0,-7.879 4.892,-15.758 14.679,-23.637Z" style="fill-rule:nonzero;stroke:#000;stroke-width:2.08px;"/><path d="M710.933,323.971c-8.008,1.779 -14.866,4.762 -20.587,8.958c-6.609,4.7 -10.867,10.613 -12.771,17.729c-0.383,1.142 -0.571,2.475 -0.571,4c0,2.796 0.792,5.117 2.384,6.959c1.587,1.841 3.716,2.762 6.383,2.762c0.637,0 1.429,-0.092 2.383,-0.283c0.954,-0.192 1.938,-0.446 2.954,-0.763c1.017,-0.316 1.971,-0.571 2.859,-0.762c0.891,-0.192 1.591,-0.288 2.1,-0.288c-0,0.763 -1.209,2.288 -3.625,4.575c-6.863,2.542 -12.105,4.513 -15.725,5.909c-3.621,1.4 -5.559,2.162 -5.813,2.287c-8.387,4.067 -14.296,8.642 -17.729,13.725c-1.017,1.017 -1.525,2.163 -1.525,3.433c-0,5.209 2.287,7.813 6.862,7.813c1.017,0 2.446,-0.221 4.288,-0.667c1.846,-0.446 3.275,-0.666 4.292,-0.666c7.37,-2.159 13.787,-6.163 19.25,-12.009c3.941,-3.941 8.325,-10.229 13.154,-18.87c8.004,-2.925 14.171,-6.163 18.491,-9.721c6.48,-5.338 9.721,-9.467 9.721,-12.392l-0.762,0c-4.829,7.75 -13.154,13.725 -24.971,17.917l9.721,-16.771c2.921,-5.084 5.433,-9.404 7.529,-12.963c2.096,-3.558 3.654,-6.421 4.671,-8.579c-1.4,1.017 -2.796,1.525 -4.196,1.525c-0.763,0 -2.158,-0.383 -4.192,-1.146c-2.671,-0.887 -4.196,-1.458 -4.575,-1.712Zm-10.675,4.575c4.575,-0.763 6.546,-1.146 5.909,-1.146c3.304,0 5.591,1.208 6.862,3.621l-8.767,15.825c-3.687,6.604 -8.195,11.179 -13.533,13.721c-5.083,-0 -7.692,-1.713 -7.817,-5.146c1.017,-8.767 6.8,-17.725 17.346,-26.875Zm-42.316,58.708c3.304,-4.829 8.325,-8.512 15.058,-11.054c3.938,-1.4 7.337,-2.575 10.2,-3.529c2.858,-0.95 5.304,-1.746 7.337,-2.379c-2.416,3.683 -4.512,6.862 -6.291,9.529c-1.779,2.667 -3.304,4.892 -4.575,6.671c-4.192,6.229 -9.15,9.341 -14.867,9.341c-2.287,0 -4.129,-0.254 -5.529,-0.762c-1.396,-1.4 -2.096,-2.988 -2.096,-4.767c0,-1.141 0.254,-2.158 0.763,-3.05Z" style="fill-rule:nonzero;stroke:#000;stroke-width:2.08px;"/><path d="M736.475,346.271c2.542,-4.446 6.608,-9.658 12.2,-15.629c2.417,-2.671 5.083,-4.004 8.008,-4.004c0.254,-0 1.017,0.129 2.288,0.383c2.791,1.779 4.637,3.304 5.525,4.575c-7.117,14.867 -13.913,24.65 -20.396,29.354c0.254,-0.129 0.954,-0.637 2.096,-1.525c1.146,-0.892 2.1,-1.146 2.862,-0.762c0.509,0.254 0.825,0.825 0.95,1.716c0.384,2.413 2.034,3.621 4.959,3.621c3.558,0 7.812,-1.333 12.77,-4.004c5.084,-2.921 8.642,-5.783 10.675,-8.575c-6.483,5.971 -13.025,9.654 -19.633,11.054c-1.146,0.254 -2.067,-0.129 -2.766,-1.146c-0.696,-1.016 -0.921,-2.096 -0.667,-3.237l16.967,-28.021l-0,-2.671c-0.763,0.129 -1.971,0.508 -3.621,1.146c-0.129,-0.129 -0.575,-0.446 -1.338,-0.954c-0.762,-0.509 -1.904,-1.079 -3.429,-1.717c-1.525,-0.633 -3.05,-0.954 -4.575,-0.954c-3.558,-0 -7.688,1.4 -12.392,4.196c-4.191,2.412 -7.625,5.146 -10.291,8.196c-2.034,2.416 -3.621,4.287 -4.767,5.625c-1.142,1.333 -1.842,2.254 -2.096,2.762c-2.412,3.558 -3.621,6.733 -3.621,9.529c0,2.542 0.825,5.021 2.48,7.438c0.887,0.887 2.475,1.333 4.762,1.333c3.433,0 6.417,-0.892 8.958,-2.671c-1.016,0.509 -1.966,0.829 -2.858,0.954c-1.271,0.255 -2.158,0.13 -2.667,-0.379c-1.525,-0.383 -2.445,-1.429 -2.766,-3.146c-0.317,-1.716 -0.604,-3.4 -0.859,-5.054c0.638,-1.525 1.209,-2.887 1.717,-4.096c0.508,-1.208 1.017,-2.32 1.525,-3.337Z" style="fill-rule:nonzero;stroke:#000;stroke-width:2.08px;"/><path d="M794.996,326.638l-17.538,25.162l0.192,0.954c0.125,-0.129 0.729,-0.892 1.808,-2.287c1.084,-1.4 2.705,-3.496 4.863,-6.292c2.162,-2.921 4.004,-5.242 5.529,-6.958c1.525,-1.713 2.667,-2.892 3.429,-3.525c0.384,-0.384 0.825,-0.571 1.334,-0.571c0.637,-0 2.287,0.633 4.958,1.904c-0.508,1.017 -1.271,2.225 -2.288,3.621c-1.016,1.4 -2.225,2.987 -3.62,4.766c-2.925,3.559 -4.83,6.292 -5.721,8.196c-1.525,2.925 -2.288,5.213 -2.288,6.863c0,3.687 1.846,5.529 5.529,5.529c1.78,-0 3.75,-0.7 5.909,-2.096c4.066,-2.925 8.641,-7.562 13.725,-13.917c-9.784,9.405 -15.442,14.105 -16.967,14.105c-2.412,-0 -3.621,-1.967 -3.621,-5.909c0,-1.779 1.4,-5.271 4.196,-10.483c1.396,-2.667 3.938,-5.846 7.625,-9.529c2.033,-2.034 3.717,-3.784 5.05,-5.242c1.333,-1.462 2.321,-2.637 2.954,-3.529c-0.254,-0.125 -0.633,-0.192 -1.141,-0.192c-1.271,0 -2.796,0.829 -4.575,2.479c-1.655,1.655 -3.117,2.48 -4.388,2.48c-0.762,-0 -1.587,-0.255 -2.475,-0.763c0.125,-0.254 0.188,-0.508 0.188,-0.762c-0,-0.384 0.066,-0.763 0.191,-1.146c0.129,-0.509 0.063,-1.017 -0.191,-1.525c-0.634,-1.017 -1.271,-1.525 -1.905,-1.525c-0.383,-0 -0.637,0.066 -0.762,0.191Z" style="fill-rule:nonzero;stroke:#000;stroke-width:2.08px;"/><path d="M834.646,325.496c-0.509,-0.892 -1.525,-1.338 -3.05,-1.338l-4.388,0l-16.391,29.167c-2.796,5.083 -5.371,9.817 -7.721,14.2c-2.35,4.383 -4.542,8.546 -6.575,12.488c-2.796,5.462 -5.275,10.133 -7.433,14.008c-2.163,3.875 -3.942,6.896 -5.338,9.054c-0.383,0 -0.254,0 0.379,0c0.509,0 1.525,0.067 3.05,0.192c1.525,-0 2.604,-0.317 3.242,-0.954c3.937,-7.75 7.912,-15.155 11.912,-22.205c4.005,-7.054 8.167,-13.883 12.488,-20.491c1.904,2.796 4.767,4.191 8.575,4.191c1.4,0 2.671,-0.191 3.812,-0.57c7.5,-3.434 13.725,-7.942 18.684,-13.534c5.845,-6.354 8.766,-13.216 8.766,-20.587c-1.525,-3.942 -4.446,-5.909 -8.766,-5.909c-2.417,0 -6.163,0.763 -11.246,2.288Zm27.066,20.775c-8.516,8.517 -15.441,13.6 -20.779,15.25c5.467,-1.525 9.721,-3.463 12.771,-5.813c3.05,-2.35 5.721,-5.495 8.008,-9.437Zm-43.65,9.342c0.509,-1.271 1.3,-3.271 2.38,-6.005c1.083,-2.733 2.512,-6.32 4.291,-10.77c3.813,-7.371 8.259,-11.055 13.342,-11.055c2.796,0 5.846,1.08 9.15,3.238c-0,12.583 -6.354,22.112 -19.063,28.596c-2.287,0.762 -4.066,1.141 -5.337,1.141c-2.288,0 -3.875,-1.716 -4.763,-5.145Z" style="fill-rule:nonzero;stroke:#000;stroke-width:2.08px;"/><path d="M922.329,270.788c-8.262,4.445 -15.441,10.483 -21.541,18.108c-2.921,3.558 -5.942,7.687 -9.055,12.392c-3.112,4.7 -6.45,10.1 -10.008,16.2c-5.462,9.279 -9.654,16.362 -12.579,21.254c-2.921,4.891 -4.513,7.658 -4.767,8.291c-5.716,9.405 -8.766,15.059 -9.15,16.967c3.813,0 6.421,-0.762 7.817,-2.287c5.083,-10.167 8.133,-16.013 9.15,-17.538c3.942,-6.479 8.196,-11.375 12.771,-14.679c2.796,-1.142 5.021,-1.713 6.671,-1.713c2.287,0 4.133,0.888 5.529,2.667c-1.017,3.688 -3.113,8.008 -6.292,12.963c-2.158,3.304 -3.875,6.004 -5.146,8.1c-1.271,2.1 -2.096,3.529 -2.479,4.291c-0.762,1.017 -1.142,2.288 -1.142,3.813c0,1.396 0.446,2.475 1.334,3.237c1.525,0.763 3.112,1.146 4.766,1.146c4.067,0 8.259,-1.842 12.58,-5.529c3.812,-3.175 6.675,-6.925 8.579,-11.246c-7.117,9.529 -13.534,14.296 -19.254,14.296c-0.888,-0.508 -1.334,-1.333 -1.334,-2.479c0,-2.034 1.209,-4.892 3.621,-8.575c1.146,-1.4 2.288,-2.796 3.433,-4.196c1.142,-1.396 2.225,-2.796 3.242,-4.192c2.667,-3.558 4,-6.737 4,-9.533c0,-1.779 -0.571,-3.621 -1.712,-5.525c-1.909,-1.146 -4.196,-1.717 -6.863,-1.717c-4.45,0 -8.833,1.209 -13.154,3.621c1.271,-1.65 1.779,-2.796 1.525,-3.429l27.258,-20.588c10.929,-8.262 17.538,-18.17 19.825,-29.737c0.379,-1.779 -0.35,-3.017 -2.191,-3.717c-1.846,-0.7 -3.655,-0.921 -5.434,-0.666Zm-8.958,6.862c3.812,-1.779 6.542,-2.671 8.196,-2.671c1.779,0 2.541,0.7 2.287,2.1c-4.321,15.121 -15.758,28.146 -34.312,39.075c5.337,-9.783 9.975,-17.854 13.916,-24.208c3.938,-6.354 7.242,-11.121 9.913,-14.296Z" style="fill-rule:nonzero;stroke:#000;stroke-width:2.08px;"/><path d="M888.017,396.975c-0.38,-0.763 -0.571,-1.525 -0.571,-2.288c-0,-2.287 3.875,-6.925 11.629,-13.912l20.204,-12.771c-9.658,4.321 -18.046,9.529 -25.162,15.629c-2.413,2.159 -4.225,3.75 -5.434,4.767c-1.204,1.017 -1.875,1.588 -2,1.713c-2.541,2.925 -3.812,5.783 -3.812,8.579c-0,2.033 0.921,3.241 2.762,3.62c1.846,0.384 3.655,0.763 5.434,1.146c9.025,-2.541 17.158,-7.433 24.4,-14.679c5.462,-5.591 11.183,-13.471 17.154,-23.637c7.246,-1.65 16.204,-6.417 26.879,-14.296l0,-0.763c0,-0.379 0.063,-0.825 0.192,-1.333c0.254,-1.017 0.062,-1.525 -0.575,-1.525c-5.592,6.988 -13.404,12.071 -23.446,15.25c4.45,-10.929 11.567,-22.938 21.35,-36.029c-0.633,-1.142 -1.333,-1.713 -2.096,-1.713c-0.383,0 -1.05,0.125 -2,0.379c-0.954,0.255 -1.687,0.384 -2.196,0.384c-0.633,-0 -1.016,-0.067 -1.141,-0.192c-5.721,10.929 -9.659,17.917 -11.817,20.967c-4.958,6.991 -10.929,12.008 -17.921,15.058c-1.142,0.383 -2.254,0.192 -3.333,-0.571c-1.084,-0.762 -2.129,-1.525 -3.146,-2.287l18.3,-32.404c-0.638,-0.13 -1.242,-0.221 -1.813,-0.288c-0.57,-0.062 -1.112,-0.096 -1.62,-0.096c-1.396,0 -2.413,0.321 -3.05,0.954l-16.963,27.83c-0.383,0.762 -0.575,2.1 -0.575,4.004c0,3.687 1.908,5.529 5.721,5.529c2.667,-0 7.371,-1.333 14.104,-4.004c0,1.654 -1.079,3.179 -3.242,4.575c-2.795,1.779 -4.254,2.858 -4.383,3.241l5.529,-1.525c-6.737,11.563 -10.166,17.409 -10.296,17.538c-5.083,8.387 -9.212,13.087 -12.387,14.104c-4.958,1.271 -8.134,1.908 -9.534,1.908c-2.666,0 -4.383,-0.954 -5.145,-2.862Z" style="fill-rule:nonzero;stroke:#000;stroke-width:2.08px;"/></g></g></svg>